<svg xmlns="http://www.w3.org/2000/svg" viewBox="0 0 494.84 433.68">
  <defs>
    <style>
      .cls-1 {
        isolation: isolate;
      }

      .cls-2 {
        fill: #151c26;
      }

      .cls-3 {
        fill: #141c25;
      }

      .cls-4 {
        fill: #0c3356;
      }

      .cls-5 {
        fill: #0c141b;
      }

      .cls-6 {
        fill: #0d3457;
      }

      .cls-7 {
        fill: #1a578b;
      }

      .cls-8 {
        fill: #151d27;
      }

      .cls-9 {
        fill: #202d3c;
      }

      .cls-10 {
        fill: #ffbe03;
      }

      .cls-11 {
        fill: gray;
        mix-blend-mode: multiply;
        opacity: 0.41;
      }

      .cls-12 {
        fill: #03569e;
      }

      .cls-13 {
        fill: #032a51;
      }

      .cls-14 {
        fill: #03417b;
      }

      .cls-15 {
        fill: #032446;
      }

      .cls-16 {
        fill: #03375e;
      }

      .cls-17 {
        fill: #03223d;
      }

      .cls-18 {
        fill: #033e68;
      }

      .cls-19 {
        fill: #959595;
      }

      .cls-20 {
        fill: #f6f6f6;
      }

      .cls-21 {
        fill: #a6a6a6;
      }

      .cls-22 {
        fill: #d0d0d0;
      }

      .cls-23 {
        fill: #ffffea;
      }

      .cls-24 {
        fill: #d1dbe6;
      }

      .cls-25 {
        fill: #f7a317;
      }

      .cls-26 {
        fill: #ffd51e;
      }

      .cls-27 {
        fill: #ffc71e;
      }

      .cls-28 {
        fill: #cd4528;
      }

      .cls-29 {
        fill: #032b4f;
      }

      .cls-30 {
        fill: #cdd7b8;
      }

      .cls-31 {
        fill: #b82d1f;
      }

      .cls-32 {
        fill: #f24634;
      }

      .cls-33 {
        fill: #f96254;
      }

      .cls-34 {
        fill: #9d9d9d;
      }

      .cls-35 {
        fill: #b4b4b4;
      }

      .cls-36 {
        fill: #03162b;
      }

      .cls-37 {
        fill: #afafaf;
      }

      .cls-38 {
        fill: #858585;
      }

      .cls-39 {
        fill: #031933;
      }

      .cls-40 {
        fill: #bababa;
      }

      .cls-41 {
        fill: #031123;
      }

      .cls-42 {
        fill: #031934;
      }

      .cls-43 {
        fill: #031b36;
      }

      .cls-44 {
        fill: #a0a0a0;
      }

      .cls-45 {
        fill: #a4a4a4;
      }

      .cls-46 {
        fill: #03172f;
      }

      .cls-47 {
        fill: #03162d;
      }

      .cls-48 {
        fill: #b9b9b9;
      }

      .cls-49 {
        fill: #031a36;
      }

      .cls-50 {
        fill: #b6b6b6;
      }

      .cls-51 {
        fill: #031a35;
      }

      .cls-52 {
        fill: #fff;
      }

      .cls-53 {
        fill: #868686;
      }

      .cls-54 {
        fill: #03274c;
      }

      .cls-55 {
        fill: #031124;
      }

      .cls-56 {
        fill: #082844;
      }

      .cls-57 {
        fill: #ecc199;
      }

      .cls-58 {
        fill: #14436c;
      }

      .cls-59 {
        fill: #a87a0c;
      }

      .cls-60 {
        fill: #7c634c;
      }

      .cls-61 {
        fill: #926909;
      }

      .cls-62 {
        fill: #8a7058;
      }

      .cls-63 {
        fill: #7d644e;
      }

      .cls-64 {
        fill: #092a46;
      }

      .cls-65 {
        fill: #836954;
      }

      .cls-66 {
        fill: #9e8064;
      }

      .cls-67 {
        fill: #b0800d;
      }

      .cls-68 {
        fill: #ffc018;
      }

      .cls-69 {
        fill: #ffdfbf;
      }

      .cls-70 {
        fill: #ffd62e;
      }

      .cls-71 {
        fill: #ffe12e;
      }

      .cls-72 {
        fill: #09111a;
      }

      .cls-73 {
        fill: #0f0f0f;
      }

      .cls-74 {
        fill: #394655;
      }

      .cls-75 {
        fill: #b2b2b2;
      }

      .cls-76 {
        fill: #d88500;
      }
    </style>
  </defs>
  <g class="cls-1">
    <g id="Layer_1" data-name="Layer 1">
      <g>
        <g id="señal">
          <g>
            <g class="cls-1">
              <g class="cls-1">
                <g class="cls-1">
                  <path class="cls-2" d="M114.86,158.75l-4.94-2.87c2.69-1.55,3.69-4.26,2.24-6l4.94,2.87c1.45,1.75.45,4.46-2.24,6Z" transform="translate(-25.52 -87.77)"/>
                </g>
              </g>
              <polygon class="cls-3" points="24.9 108.19 19.96 105.32 84.4 68.11 89.35 70.98 24.9 108.19"/>
              <g class="cls-1">
                <g class="cls-1">
                  <path class="cls-2" d="M48.06,196.42l-4.94-2.88c.49.29,1.29.16,2.35-.45L50.41,196c-1.06.61-1.86.74-2.35.46Z" transform="translate(-25.52 -87.77)"/>
                </g>
              </g>
              <g class="cls-1">
                <g class="cls-1">
                  <path class="cls-4" d="M48.06,196.42l-4.94-2.88c-.74-.43-.77-1.81.1-3.87l4.94,2.87c-.86,2.07-.84,3.44-.1,3.88Z" transform="translate(-25.52 -87.77)"/>
                </g>
              </g>
              <g class="cls-1">
                <g class="cls-1">
                  <path class="cls-2" d="M45.3,201.17l-4.94-2.87a2.92,2.92,0,0,1-1-.94c-1.12-1.71-.93-4.69.55-8.21L44.87,192c-1.48,3.52-1.67,6.51-.54,8.21a2.8,2.8,0,0,0,1,.94Z" transform="translate(-25.52 -87.77)"/>
                </g>
              </g>
              <polygon class="cls-5" points="91.58 64.98 86.64 62.1 54.63 23.37 59.57 26.24 91.58 64.98"/>
              <g class="cls-1">
                <g class="cls-1">
                  <path class="cls-2" d="M85.09,114l-4.94-2.87a2.47,2.47,0,0,0-.61-.53l4.94,2.88a2.26,2.26,0,0,1,.61.52Z" transform="translate(-25.52 -87.77)"/>
                </g>
              </g>
              <g class="cls-1">
                <g class="cls-1">
                  <path class="cls-4" d="M82.46,113.58l-4.95-2.87a2,2,0,0,1,2-.11l4.94,2.88a1.92,1.92,0,0,0-2,.1Z" transform="translate(-25.52 -87.77)"/>
                </g>
              </g>
              <polygon class="cls-6" points="22.65 104.78 17.7 101.91 49.38 26.4 54.32 29.27 22.65 104.78"/>
              <path class="cls-7" d="M82.46,113.58a1.91,1.91,0,0,1,2.63.42l32,38.74c1.45,1.75.45,4.46-2.24,6L50.41,196c-2.67,1.54-3.68,0-2.25-3.42L79.84,117A7.11,7.11,0,0,1,82.46,113.58Z" transform="translate(-25.52 -87.77)"/>
              <g class="cls-1">
                <g class="cls-1">
                  <path class="cls-4" d="M79.84,117l-5-2.87a7.11,7.11,0,0,1,2.62-3.45l4.95,2.87A7.11,7.11,0,0,0,79.84,117Z" transform="translate(-25.52 -87.77)"/>
                </g>
              </g>
              <polygon class="cls-8" points="19.36 104.25 14.42 101.38 46.09 25.87 51.03 28.75 19.36 104.25"/>
              <path class="cls-9" d="M120.37,148.43c1.49,1.81,1.7,4.56.58,7.56a14.18,14.18,0,0,1-6.07,7.24L50.43,200.44c-2.75,1.58-5,1.51-6.1-.21s-.94-4.69.54-8.21l31.68-75.51a15.45,15.45,0,0,1,5.9-7.41c2.33-1.35,4.48-1.12,5.91.59Zm-5.51,10.32c2.69-1.55,3.69-4.26,2.24-6L85.09,114a1.91,1.91,0,0,0-2.63-.42A7.11,7.11,0,0,0,79.84,117L48.16,192.54c-1.43,3.42-.42,5,2.25,3.42l64.45-37.21Z" transform="translate(-25.52 -87.77)"/>
              <g class="cls-1">
                <g class="cls-1">
                  <path class="cls-2" d="M76.55,116.51l-4.94-2.87a15.42,15.42,0,0,1,5.9-7.42,4.69,4.69,0,0,1,4.79-.36l4.94,2.87a4.67,4.67,0,0,0-4.79.37,15.45,15.45,0,0,0-5.9,7.41Z" transform="translate(-25.52 -87.77)"/>
                </g>
              </g>
            </g>
            <g id="rayo2">
              <polygon class="cls-10" points="65.82 37.62 58.09 61.72 65.63 66.01 47.77 92.27 55.83 70.77 48.3 67.96 65.82 37.62"/>
            </g>
          </g>
        </g>
        <g>
          <polygon class="cls-11" points="234.25 144.39 202.49 144.39 155.8 117.9 269.06 52.9 329.33 89.53 234.25 144.39"/>
          <g id="maletin">
            <g class="cls-1">
              <polygon class="cls-12" points="234.07 69.01 209.7 54.85 304.78 0 329.15 14.16 234.07 69.01"/>
              <polygon class="cls-13" points="234.25 144.39 209.89 130.23 209.7 54.85 234.07 69.01 234.25 144.39"/>
              <polygon class="cls-14" points="234.07 69.01 329.15 14.16 329.33 89.53 234.25 144.39 234.07 69.01"/>
            </g>
            <polygon class="cls-15" points="218.98 60.25 314.09 5.41 314.87 5.86 219.8 60.73 218.98 60.25"/>
            <polygon class="cls-15" points="219.81 60.72 220 136.1 219.18 135.63 218.99 60.25 219.81 60.72"/>
            <g class="cls-1">
              <polygon class="cls-16" points="242.21 52.95 242.21 53.52 238.04 55.92 238.04 55.36 242.21 52.95"/>
              <polygon class="cls-17" points="238.04 55.36 238.04 55.92 226.3 49.14 226.3 48.58 238.04 55.36"/>
              <polygon class="cls-18" points="230.47 46.17 242.21 52.95 238.04 55.36 226.3 48.58 230.47 46.17"/>
            </g>
            <g class="cls-1">
              <polygon class="cls-16" points="303.51 18.35 303.51 18.91 299.34 21.32 299.34 20.76 303.51 18.35"/>
              <polygon class="cls-17" points="299.34 20.76 299.34 21.32 287.6 14.54 287.61 13.97 299.34 20.76"/>
              <polygon class="cls-18" points="291.78 11.57 303.51 18.35 299.34 20.76 287.61 13.97 291.78 11.57"/>
            </g>
            <g class="cls-1">
              <polygon class="cls-19" points="286.78 28.7 282.42 26.16 282.38 9.38 286.74 11.92 286.78 28.7"/>
              <polygon class="cls-20" points="255.59 24.84 251.22 22.3 286.6 1.89 290.97 4.42 255.59 24.84"/>
              <polygon class="cls-21" points="255.64 46.66 251.28 44.12 251.22 22.3 255.59 24.84 255.64 46.66"/>
              <polygon class="cls-22" points="255.59 24.84 290.97 4.42 291.02 26.25 286.78 28.7 286.74 11.92 259.84 27.44 259.88 44.22 255.64 46.66 255.59 24.84"/>
            </g>
            <polygon id="rayo1" class="cls-10" points="295.65 44.13 285.72 75.12 295.41 80.64 272.45 114.41 282.8 86.77 273.12 83.16 295.65 44.13"/>
          </g>
        </g>
        <g>
          <g>
            <polygon class="cls-11" points="316.01 177.43 283.19 177.43 254.76 160.92 308.18 129.89 350.01 154.12 316.01 177.43"/>
            <path class="cls-11" d="M376.93,258.71s-11.63,2.24-12.78-8.46,3.74-1.05,3.74-1.05l1.18,5.13,4,2.33Z" transform="translate(-25.52 -87.77)"/>
            <path class="cls-11" d="M369,272.68s-16.52,1.56-17.34-16.84,4.88-.91,4.88-.91l1.1,7.23,2.8,5.74,4.69,3.18Z" transform="translate(-25.52 -87.77)"/>
          </g>
          <g>
            <path class="cls-23" d="M416.45,232.38a.91.91,0,0,1-.37,1.24l-5,2.74a.91.91,0,0,1-1.24-.37h0a.91.91,0,0,1,.37-1.24l5-2.74a.91.91,0,0,1,1.24.37Z" transform="translate(-25.52 -87.77)"/>
            <path class="cls-23" d="M420.32,247.46a.91.91,0,0,1-.62,1.14l-5.5,1.61a.92.92,0,0,1-1.13-.62h0a.91.91,0,0,1,.62-1.14l5.5-1.61a.92.92,0,0,1,1.13.62Z" transform="translate(-25.52 -87.77)"/>
            <path class="cls-15" d="M370.16,272.68a16.82,16.82,0,0,1-2.44-.19c-4.1-.65-7.19-2.38-9.2-5.16-3.92-5.42-2.63-13.21-2-16.95.11-.67.22-1.3.22-1.52a1.08,1.08,0,1,1,2.15,0,14.88,14.88,0,0,1-.24,1.87c-.57,3.45-1.76,10.64,1.63,15.34,1.66,2.29,4.29,3.74,7.8,4.29,7.89,1.23,15.56-4.93,23-10.9,6.73-5.41,13.09-10.53,19.71-10.53a1.08,1.08,0,0,1,0,2.16c-5.86,0-11.93,4.88-18.37,10C385.33,266.82,378,272.67,370.16,272.68Z" transform="translate(-25.52 -87.77)"/>
            <path class="cls-24" d="M376.93,258.71a12.29,12.29,0,0,1-4.24-.77,7.92,7.92,0,0,1-5-4.42c-1.81-4.52,1.11-10.46,3-14.38a17.3,17.3,0,0,0,1.21-2.77,1.1,1.1,0,0,1,1.13-1,1,1,0,0,1,1,1c0,.75-.46,1.73-1.43,3.7-1.66,3.36-4.43,9-3,12.63a5.72,5.72,0,0,0,3.7,3.19c7.08,2.59,13.22-3.19,19.73-9.3C398.69,241.41,404.41,236,411,236a1.08,1.08,0,1,1,0,2.15c-5.72,0-11.12,5.08-16.35,10C389.11,253.37,383.42,258.71,376.93,258.71Z" transform="translate(-25.52 -87.77)"/>
            <g>
              <g class="cls-1">
                <polygon class="cls-25" points="316.01 177.43 308.2 172.9 307.99 96.22 315.8 100.76 316.01 177.43"/>
                <polygon class="cls-26" points="315.8 100.76 307.99 96.22 348.76 72.68 356.57 77.22 315.8 100.76"/>
                <polygon class="cls-27" points="356.57 77.22 356.79 153.89 316.01 177.43 315.8 100.76 356.57 77.22"/>
              </g>
              <polygon class="cls-23" points="354.69 103.26 317.7 124.62 317.7 103.94 354.69 82.58 354.69 103.26"/>
              <path class="cls-28" d="M349.68,214.81c-.69-1.12-2.49-.76-4,.82s-2.2,3.77-1.5,4.89,2.49.76,4-.82S350.38,215.94,349.68,214.81Z" transform="translate(-25.52 -87.77)"/>
              <path class="cls-28" d="M380.8,196.69c-.69-1.13-2.49-.76-4,.82s-2.2,3.76-1.51,4.89,2.5.76,4-.82S381.5,197.81,380.8,196.69Z" transform="translate(-25.52 -87.77)"/>
              <g>
                <path class="cls-29" d="M347,198.21a5.25,5.25,0,0,1,2.85-4.62l2.41-1.39c2.13-1.23,2.72-.28,2.72,1.25v5.12a5.1,5.1,0,0,1-2.73,4.4l-2.42,1.39c-1.91,1.1-2.83.58-2.83-1.18Zm3.69,3.1.61-.36a1.3,1.3,0,0,0,.83-1.32v-3.94c0-.68-.31-.68-.71-.45l-.84.49a1.33,1.33,0,0,0-.73,1.27v3.93C349.89,201.75,350.4,201.5,350.73,201.31Z" transform="translate(-25.52 -87.77)"/>
                <path class="cls-29" d="M356.17,192.94a5.25,5.25,0,0,1,2.85-4.62l2.41-1.39c2.13-1.23,2.72-.27,2.72,1.25v5.12a5.09,5.09,0,0,1-2.74,4.4L359,199.09c-1.91,1.1-2.83.58-2.83-1.18Zm3.68,3.1.62-.36a1.3,1.3,0,0,0,.82-1.32v-3.94c0-.68-.3-.68-.7-.45l-.84.49a1.33,1.33,0,0,0-.73,1.27v3.93C359,196.48,359.53,196.23,359.85,196Z" transform="translate(-25.52 -87.77)"/>
                <path class="cls-29" d="M365.42,193.32a.66.66,0,0,1,.36-.57l1.66-1c.26-.15.36-.07.36.16v1.72a.64.64,0,0,1-.36.55l-1.66,1c-.21.12-.36.07-.36-.14Z" transform="translate(-25.52 -87.77)"/>
                <path class="cls-29" d="M369.07,185.49a5.25,5.25,0,0,1,2.85-4.62l2.41-1.39c2.13-1.23,2.72-.27,2.72,1.25v5.12a5.1,5.1,0,0,1-2.73,4.4l-2.42,1.39c-1.91,1.1-2.83.58-2.83-1.18Zm3.69,3.1.61-.36a1.3,1.3,0,0,0,.83-1.32V183c0-.68-.31-.68-.71-.45l-.84.49a1.33,1.33,0,0,0-.73,1.27v3.93C371.92,189,372.43,188.78,372.76,188.59Z" transform="translate(-25.52 -87.77)"/>
              </g>
              <polygon class="cls-30" points="353 83.56 353 102.91 317.7 123.29 317.7 124.61 354.69 103.26 354.69 82.58 353 83.56"/>
              <g class="cls-1">
                <g class="cls-1">
                  <g class="cls-1">
                    <path class="cls-31" d="M363.45,211.91l-1.9-1.11c4-2.29,7.85-2.69,10.68-1l1.89,1.1c-2.83-1.65-6.69-1.25-10.67,1Z" transform="translate(-25.52 -87.77)"/>
                  </g>
                </g>
                <g class="cls-1">
                  <g class="cls-1">
                    <path class="cls-31" d="M352.88,247.41l-1.9-1.1a8,8,0,0,1-3-3.26c-3.45-6.67-.15-18.81,7.37-27.1a26.43,26.43,0,0,1,6.2-5.15l1.9,1.11a26.13,26.13,0,0,0-6.2,5.14c-7.53,8.29-10.82,20.43-7.37,27.11a7.91,7.91,0,0,0,3,3.25Z" transform="translate(-25.52 -87.77)"/>
                  </g>
                </g>
                <path class="cls-32" d="M363.45,211.91c5.69-3.29,11.14-2.68,13.68,2.21,3.46,6.67.16,18.81-7.37,27.11a26.48,26.48,0,0,1-6.19,5.13c-5.7,3.29-11.15,2.69-13.69-2.2-3.45-6.68-.16-18.82,7.37-27.11A26.13,26.13,0,0,1,363.45,211.91Z" transform="translate(-25.52 -87.77)"/>
              </g>
              <g id="Rotar">
                <g class="cls-1">
                  <polygon class="cls-31" points="336.86 157.17 334.96 156.07 334.89 128.7 336.78 129.8 336.86 157.17"/>
                  <polygon class="cls-31" points="336.78 129.8 334.89 128.7 340.4 125.52 342.3 126.62 336.78 129.8"/>
                  <polygon class="cls-33" points="342.3 126.62 342.37 153.99 336.86 157.17 336.78 129.8 342.3 126.62"/>
                </g>
              </g>
            </g>
            <g class="cls-1">
              <path class="cls-32" d="M413.52,236.37c0,1.37-.93,1.95-2.12,1.29a4.7,4.7,0,0,1-2.17-3.68c0-1.38.93-2,2.11-1.3A4.72,4.72,0,0,1,413.52,236.37Z" transform="translate(-25.52 -87.77)"/>
              <path class="cls-32" d="M401.92,242.9a1,1,0,0,1-.9-.11,3,3,0,0,1-1.39-2.36,1,1,0,0,1,.35-.88l5.39-3.82,1-.69,1-.7,1.46-1a11.56,11.56,0,0,0,1-.7,1.61,1.61,0,0,0-.54,1.38,4.7,4.7,0,0,0,2.17,3.68,1.54,1.54,0,0,0,1.41.17Z" transform="translate(-25.52 -87.77)"/>
              <path class="cls-24" d="M412.81,237.83l-10.89,5.07a1,1,0,0,0,.46-.94l11.14-5.59A1.47,1.47,0,0,1,412.81,237.83Z" transform="translate(-25.52 -87.77)"/>
              <path class="cls-24" d="M400,239.55q4.9-3.47,9.79-7a1.47,1.47,0,0,1,1.57.08,4.72,4.72,0,0,1,2.18,3.69L402.38,242a3,3,0,0,0-1.4-2.36A.93.93,0,0,0,400,239.55Z" transform="translate(-25.52 -87.77)"/>
              <path class="cls-24" d="M402.38,242c0,.88-.6,1.25-1.36.83a3,3,0,0,1-1.39-2.36c0-.88.6-1.25,1.35-.83A3,3,0,0,1,402.38,242Z" transform="translate(-25.52 -87.77)"/>
            </g>
            <g class="cls-1">
              <path class="cls-15" d="M416.44,251c-.36,1.33-1.44,1.62-2.39.66a4.72,4.72,0,0,1-1.08-4.14c.37-1.33,1.44-1.62,2.39-.66A4.72,4.72,0,0,1,416.44,251Z" transform="translate(-25.52 -87.77)"/>
              <path class="cls-15" d="M403.49,254a1,1,0,0,1-.83-.35A3,3,0,0,1,402,251a1,1,0,0,1,.58-.75l6.23-2.18,1.13-.4,1.14-.4,1.7-.59c.34-.12.8-.25,1.13-.4a1.61,1.61,0,0,0-.91,1.17,4.72,4.72,0,0,0,1.08,4.14,1.53,1.53,0,0,0,1.3.55Z" transform="translate(-25.52 -87.77)"/>
              <path class="cls-15" d="M415.35,252.17,403.49,254c.31,0,.57-.31.7-.77l12.25-2.3C416.24,251.68,415.84,252.1,415.35,252.17Z" transform="translate(-25.52 -87.77)"/>
              <path class="cls-15" d="M402.55,250.28l11.33-4a1.42,1.42,0,0,1,1.48.51,4.72,4.72,0,0,1,1.08,4.14l-12.25,2.3a3,3,0,0,0-.69-2.65A.92.92,0,0,0,402.55,250.28Z" transform="translate(-25.52 -87.77)"/>
              <path class="cls-15" d="M404.19,253.26c-.24.85-.92,1-1.53.42A3,3,0,0,1,402,251c.23-.85.92-1,1.53-.42A3,3,0,0,1,404.19,253.26Z" transform="translate(-25.52 -87.77)"/>
            </g>
          </g>
        </g>
        <g id="planos">
          <polygon class="cls-11" points="203.13 333.68 197.6 333.68 100.93 278.07 197.54 221.78 262 259.23 203.13 333.68"/>
          <g class="cls-1">
            <g class="cls-1">
              <g class="cls-1">
                <path class="cls-34" d="M238,322.15v2.39a.74.74,0,0,0-.44-.59,1.74,1.74,0,0,0-.5-.2v-2.39a1.93,1.93,0,0,1,.51.19.75.75,0,0,1,.44.6Z" transform="translate(-25.52 -87.77)"/>
                <path class="cls-35" d="M237,321.36v2.39a2.33,2.33,0,0,0-.53-.06,2.24,2.24,0,0,0-1,.25v-2.39a2.29,2.29,0,0,1,1.56-.19Z" transform="translate(-25.52 -87.77)"/>
                <path class="cls-34" d="M235.45,321.55v2.39a.74.74,0,0,0-.43.6v-2.39a.7.7,0,0,1,.42-.6Z" transform="translate(-25.52 -87.77)"/>
              </g>
            </g>
            <g class="cls-1">
              <g class="cls-1">
                <path class="cls-34" d="M249.47,325.35v2.39a.75.75,0,0,0-.44-.61,1.83,1.83,0,0,0-.48-.18v-2.4a1.61,1.61,0,0,1,.49.19.75.75,0,0,1,.44.61Z" transform="translate(-25.52 -87.77)"/>
                <path class="cls-35" d="M248.54,324.55V327a2.27,2.27,0,0,0-1.59.18v-2.4a2.38,2.38,0,0,1,1.59-.18Z" transform="translate(-25.52 -87.77)"/>
                <polygon class="cls-34" points="221.44 236.97 221.43 239.37 221.43 239.37 221.44 236.97 221.44 236.97 221.44 236.97"/>
              </g>
            </g>
            <g class="cls-1">
              <g class="cls-1">
                <path class="cls-36" d="M249.47,325.35v2.39a.72.72,0,0,1-.42.6v-2.4a.72.72,0,0,0,.43-.59Z" transform="translate(-25.52 -87.77)"/>
              </g>
            </g>
            <polygon class="cls-37" points="221.44 236.97 221.43 239.37 212.47 244.57 212.48 242.18 221.44 236.97"/>
            <polygon class="cls-38" points="212.48 242.18 212.47 244.57 212.44 236.78 212.45 234.38 212.48 242.18"/>
            <polygon class="cls-39" points="223.53 238.18 223.52 240.57 214.56 245.78 214.57 243.38 223.53 238.18"/>
            <polygon class="cls-40" points="228.03 243.38 228.02 245.77 214.56 245.78 214.57 243.38 228.03 243.38"/>
            <g class="cls-1">
              <g class="cls-1">
                <path class="cls-34" d="M211.85,331.27v2.39a1.9,1.9,0,0,0-.49-.18v-2.4a1.72,1.72,0,0,1,.48.19Z" transform="translate(-25.52 -87.77)"/>
                <path class="cls-35" d="M211.37,331.08v2.4a2.27,2.27,0,0,0-1.59.18v-2.39a2.32,2.32,0,0,1,1.59-.19Z" transform="translate(-25.52 -87.77)"/>
                <polygon class="cls-34" points="184.26 243.5 184.26 245.9 184.25 245.9 184.26 243.5 184.26 243.5 184.26 243.5"/>
              </g>
            </g>
            <polygon class="cls-41" points="209.55 243.88 209.55 246.27 209.5 236.78 209.51 234.38 209.55 243.88"/>
            <g class="cls-1">
              <g class="cls-1">
                <path class="cls-34" d="M255,332v2.4a.77.77,0,0,0-.45-.6,1.74,1.74,0,0,0-.5-.19v-2.4a1.74,1.74,0,0,1,.5.2.74.74,0,0,1,.44.59Z" transform="translate(-25.52 -87.77)"/>
                <path class="cls-35" d="M254.07,331.2v2.4a2.2,2.2,0,0,0-.53-.06v-2.4a2.33,2.33,0,0,1,.53.06Z" transform="translate(-25.52 -87.77)"/>
              </g>
            </g>
            <g class="cls-1">
              <g class="cls-1">
                <path class="cls-36" d="M255,332v2.4a.76.76,0,0,1-.44.6V332.6A.76.76,0,0,0,255,332Z" transform="translate(-25.52 -87.77)"/>
                <path class="cls-42" d="M254.58,332.6V335a2.12,2.12,0,0,1-1,.25v-2.4a2.15,2.15,0,0,0,1-.24Z" transform="translate(-25.52 -87.77)"/>
              </g>
            </g>
            <polygon class="cls-43" points="228.04 245.08 228.03 247.47 211.64 247.48 211.65 245.08 228.04 245.08"/>
            <polygon class="cls-37" points="184.26 243.5 184.25 245.9 178.66 249.15 178.67 246.75 184.26 243.5"/>
            <polygon class="cls-39" points="211.65 245.08 211.64 247.48 207.26 250.03 207.27 247.63 211.65 245.08"/>
            <polygon class="cls-39" points="185.31 245.31 185.3 247.7 180.17 250.69 180.17 248.29 185.31 245.31"/>
            <polygon class="cls-39" points="180.17 248.29 180.17 250.69 178.72 251.53 178.73 249.13 180.17 248.29"/>
            <g class="cls-1">
              <g class="cls-1">
                <path class="cls-34" d="M204.19,334.52v2.39a10.79,10.79,0,0,0-1.64-.51V334a12.07,12.07,0,0,1,1.64.52Z" transform="translate(-25.52 -87.77)"/>
                <path class="cls-35" d="M202.55,334v2.4a13.13,13.13,0,0,0-9,1.05v-2.39a13.16,13.16,0,0,1,9.06-1.06Z" transform="translate(-25.52 -87.77)"/>
                <path class="cls-34" d="M193.49,335.06v2.39h0a4.16,4.16,0,0,0-2.42,3.4v-2.39a4.17,4.17,0,0,1,2.42-3.4Z" transform="translate(-25.52 -87.77)"/>
              </g>
            </g>
            <polygon class="cls-36" points="178.73 249.13 178.72 251.53 178.05 251.07 178.05 248.68 178.73 249.13"/>
            <polygon class="cls-37" points="209.55 243.88 209.55 246.27 198.3 252.81 198.31 250.41 209.55 243.88"/>
            <polygon class="cls-44" points="198.31 250.41 198.3 252.81 186.33 245.9 186.34 243.5 198.31 250.41"/>
            <g class="cls-1">
              <g class="cls-1">
                <path class="cls-36" d="M203.57,336.44v2.39l-.27-.16a6.9,6.9,0,0,0-1.83-.71v-2.39a7,7,0,0,1,1.83.7l.27.17Z" transform="translate(-25.52 -87.77)"/>
                <path class="cls-42" d="M201.47,335.57V338a8.66,8.66,0,0,0-5.93.68v-2.39a8.66,8.66,0,0,1,5.93-.68Z" transform="translate(-25.52 -87.77)"/>
                <path class="cls-36" d="M195.54,336.25v2.39h0a2.72,2.72,0,0,0-1.59,2.23v-2.39a2.74,2.74,0,0,1,1.6-2.23Z" transform="translate(-25.52 -87.77)"/>
              </g>
            </g>
            <polygon class="cls-39" points="205.19 248.84 205.18 251.23 200.39 254.02 200.4 251.62 205.19 248.84"/>
            <g class="cls-1">
              <g class="cls-1">
                <path class="cls-35" d="M191.22,339.43v2.4a12.73,12.73,0,0,0-7.51,1.31v-2.39a12.7,12.7,0,0,1,7.51-1.32Z" transform="translate(-25.52 -87.77)"/>
                <path class="cls-34" d="M183.71,340.75v2.39h0a4.19,4.19,0,0,0-2.42,3.4v-2.39a4.13,4.13,0,0,1,2.42-3.4Z" transform="translate(-25.52 -87.77)"/>
              </g>
            </g>
            <g class="cls-1">
              <g class="cls-1">
                <path class="cls-34" d="M195.86,340.92v2.39a2.25,2.25,0,0,1-.31-.16,2.77,2.77,0,0,1-1.62-2.27v-2.39a2.74,2.74,0,0,0,1.62,2.26l.31.17Z" transform="translate(-25.52 -87.77)"/>
              </g>
            </g>
            <polygon class="cls-45" points="171.13 253.54 171.12 255.93 170.34 255.55 170.35 253.15 171.13 253.54"/>
            <polygon class="cls-39" points="171.13 253.54 171.12 255.93 169.09 257.13 169.09 254.73 171.13 253.54"/>
            <polygon class="cls-46" points="169.09 254.73 169.09 257.13 168.33 256.79 168.33 254.4 169.09 254.73"/>
            <g class="cls-1">
              <g class="cls-1">
                <path class="cls-34" d="M183.71,340.75v2.39h0a4.19,4.19,0,0,0-2.42,3.4v-2.39a4.13,4.13,0,0,1,2.42-3.4Z" transform="translate(-25.52 -87.77)"/>
              </g>
            </g>
            <g class="cls-1">
              <g class="cls-1">
                <path class="cls-36" d="M193.85,342.16v2.4l-.34-.22a7,7,0,0,0-1.82-.7v-2.39a6.42,6.42,0,0,1,1.81.69l.35.22Z" transform="translate(-25.52 -87.77)"/>
                <path class="cls-42" d="M191.69,341.25v2.39a8.66,8.66,0,0,0-5.93.69v-2.4a8.6,8.6,0,0,1,5.93-.68Z" transform="translate(-25.52 -87.77)"/>
                <path class="cls-36" d="M185.76,341.93v2.4h0a2.69,2.69,0,0,0-1.58,2.23v-2.39a2.74,2.74,0,0,1,1.58-2.24Z" transform="translate(-25.52 -87.77)"/>
              </g>
            </g>
            <g class="cls-1">
              <g class="cls-1">
                <path class="cls-36" d="M181.43,345.12v2.4a3,3,0,0,1-.16-1v-2.39a2.93,2.93,0,0,0,.16,1Z" transform="translate(-25.52 -87.77)"/>
              </g>
            </g>
            <polygon class="cls-44" points="211.31 257.92 211.3 260.31 200.39 254.02 200.4 251.62 211.31 257.92"/>
            <g class="cls-1">
              <g class="cls-1">
                <path class="cls-34" d="M237.26,346.29v2.39a.74.74,0,0,0-.43-.6v-2.4a.75.75,0,0,1,.44.61Z" transform="translate(-25.52 -87.77)"/>
              </g>
            </g>
            <polygon class="cls-47" points="208.2 258.52 208.19 260.92 185.3 247.7 185.31 245.31 208.2 258.52"/>
            <g class="cls-1">
              <g class="cls-1">
                <path class="cls-34" d="M186.08,346.6V349l-.33-.17a2.7,2.7,0,0,1-1.58-2.26v-2.39a2.72,2.72,0,0,0,1.59,2.25,2.55,2.55,0,0,0,.33.17Z" transform="translate(-25.52 -87.77)"/>
              </g>
            </g>
            <g class="cls-1">
              <g class="cls-1">
                <path class="cls-36" d="M237.26,346.29v2.39a.71.71,0,0,1-.43.6v-2.39a.75.75,0,0,0,.43-.6Z" transform="translate(-25.52 -87.77)"/>
              </g>
            </g>
            <polygon class="cls-45" points="161.36 259.23 161.35 261.62 160.56 261.24 160.56 258.84 161.36 259.23"/>
            <polygon class="cls-39" points="161.36 259.23 161.35 261.62 159.3 262.81 159.31 260.42 161.36 259.23"/>
            <polygon class="cls-46" points="159.31 260.42 159.3 262.81 158.53 262.48 158.54 260.08 159.31 260.42"/>
            <g class="cls-1">
              <g class="cls-1">
                <path class="cls-35" d="M181.43,345.12v2.4a12.69,12.69,0,0,0-7.5,1.31v-2.4a12.73,12.73,0,0,1,7.51-1.31Z" transform="translate(-25.52 -87.77)"/>
                <path class="cls-34" d="M173.92,346.43v2.4h0c-1.62.94-2.44,2.17-2.44,3.41v-2.4c0-1.23.81-2.47,2.43-3.41Z" transform="translate(-25.52 -87.77)"/>
              </g>
            </g>
            <g class="cls-1">
              <g class="cls-1">
                <path class="cls-36" d="M184.06,347.85v2.39a2.92,2.92,0,0,0-.36-.23,6.41,6.41,0,0,0-1.79-.69v-2.4a7.16,7.16,0,0,1,1.8.69l.36.24Z" transform="translate(-25.52 -87.77)"/>
                <path class="cls-42" d="M181.9,346.92v2.4a8.58,8.58,0,0,0-5.94.7v-2.4a8.66,8.66,0,0,1,5.93-.7Z" transform="translate(-25.52 -87.77)"/>
                <path class="cls-36" d="M176,347.62V350h0a2.73,2.73,0,0,0-1.59,2.24v-2.4a2.74,2.74,0,0,1,1.6-2.23Z" transform="translate(-25.52 -87.77)"/>
              </g>
            </g>
            <g class="cls-1">
              <g class="cls-1">
                <path class="cls-34" d="M176.3,352.29v2.39l-.31-.16a2.77,2.77,0,0,1-1.62-2.26v-2.4a2.74,2.74,0,0,0,1.62,2.26l.32.17Z" transform="translate(-25.52 -87.77)"/>
              </g>
            </g>
            <g class="cls-1">
              <g class="cls-1">
                <path class="cls-36" d="M173,352.65V355a3.65,3.65,0,0,1-1.52-2.79v-2.4a3.66,3.66,0,0,0,1.51,2.8Z" transform="translate(-25.52 -87.77)"/>
              </g>
            </g>
            <polygon class="cls-45" points="151.56 264.91 151.56 267.3 150.78 266.92 150.79 264.52 151.56 264.91"/>
            <polygon class="cls-39" points="151.56 264.91 151.56 267.3 150.45 267.96 150.46 265.56 151.56 264.91"/>
            <polygon class="cls-47" points="235.98 266.62 235.98 269.01 205.18 251.23 205.19 248.84 235.98 266.62"/>
            <g class="cls-1">
              <g class="cls-1">
                <path class="cls-34" d="M211.88,353.66v2.4a1.61,1.61,0,0,0-.49-.19v-2.4a2.62,2.62,0,0,1,.49.19Z" transform="translate(-25.52 -87.77)"/>
                <path class="cls-35" d="M211.39,353.47v2.4a2.35,2.35,0,0,0-1.58.18v-2.39a2.33,2.33,0,0,1,1.59-.19Z" transform="translate(-25.52 -87.77)"/>
                <path class="cls-34" d="M209.8,353.66v2.39h0a.72.72,0,0,0-.42.59v-2.39a.73.73,0,0,1,.42-.6Z" transform="translate(-25.52 -87.77)"/>
              </g>
            </g>
            <g class="cls-1">
              <g class="cls-1">
                <path class="cls-36" d="M209.81,354.86v2.4a.74.74,0,0,1-.43-.61v-2.39a.69.69,0,0,0,.43.6Z" transform="translate(-25.52 -87.77)"/>
              </g>
            </g>
            <polygon class="cls-37" points="147.47 264.88 147.46 267.28 142.2 270.34 142.2 267.94 147.47 264.88"/>
            <polygon class="cls-44" points="190.95 268.55 190.94 270.94 186.35 268.29 186.36 265.9 190.95 268.55"/>
            <polygon class="cls-37" points="208.2 258.52 208.19 260.92 190.94 270.94 190.95 268.55 208.2 258.52"/>
            <polygon class="cls-39" points="150.46 265.56 150.45 267.96 145.31 270.94 145.32 268.55 150.46 265.56"/>
            <g class="cls-1">
              <g class="cls-1">
                <path class="cls-34" d="M167.72,355.71v2.39a.73.73,0,0,0-.42.6v-2.39a.75.75,0,0,1,.43-.6Z" transform="translate(-25.52 -87.77)"/>
              </g>
            </g>
            <g class="cls-1">
              <g class="cls-1">
                <path class="cls-34" d="M208.05,355.89v2.39a1.9,1.9,0,0,0-.49-.18v-2.4a1.72,1.72,0,0,1,.49.19Z" transform="translate(-25.52 -87.77)"/>
                <path class="cls-35" d="M207.56,355.7v2.4a2.24,2.24,0,0,0-1.58.18v-2.39a2.32,2.32,0,0,1,1.59-.19Z" transform="translate(-25.52 -87.77)"/>
                <path class="cls-34" d="M206,355.89v2.39h0a.73.73,0,0,0-.42.6v-2.4a.72.72,0,0,1,.42-.59Z" transform="translate(-25.52 -87.77)"/>
              </g>
            </g>
            <polygon class="cls-44" points="244.35 269.04 244.34 271.43 207.26 250.03 207.27 247.63 244.35 269.04"/>
            <polygon class="cls-48" points="252.98 269.4 252.97 271.8 244.34 271.43 244.35 269.04 252.98 269.4"/>
            <g class="cls-1">
              <g class="cls-1">
                <path class="cls-36" d="M167.73,356.91v2.4a.74.74,0,0,1-.43-.61v-2.39a.73.73,0,0,0,.44.6Z" transform="translate(-25.52 -87.77)"/>
              </g>
            </g>
            <g class="cls-1">
              <g class="cls-1">
                <path class="cls-36" d="M206,357.09v2.39a.71.71,0,0,1-.43-.6v-2.4a.72.72,0,0,0,.43.61Z" transform="translate(-25.52 -87.77)"/>
              </g>
            </g>
            <polygon class="cls-39" points="211.31 259.12 211.31 261.52 193.02 272.14 193.03 269.75 211.31 259.12"/>
            <g class="cls-1">
              <g class="cls-1">
                <path class="cls-34" d="M279.86,358v2.4a.75.75,0,0,0-.44-.6,1.86,1.86,0,0,0-.5-.19v-2.4a1.79,1.79,0,0,1,.49.19.76.76,0,0,1,.45.6Z" transform="translate(-25.52 -87.77)"/>
                <path class="cls-35" d="M278.92,357.22v2.4a2.83,2.83,0,0,0-.42-.06v-2.39a2,2,0,0,1,.43.05Z" transform="translate(-25.52 -87.77)"/>
              </g>
            </g>
            <g class="cls-1">
              <g class="cls-1">
                <path class="cls-36" d="M279.86,358v.06a.13.13,0,0,0,0-.06Z" transform="translate(-25.52 -87.77)"/>
              </g>
            </g>
            <polygon class="cls-47" points="242.65 270.47 242.65 272.86 238.06 270.21 238.06 267.82 242.65 270.47"/>
            <g class="cls-1">
              <g class="cls-1">
                <path class="cls-42" d="M269.1,358.48v2.4l-.53-.11v-2.39l.52.1Z" transform="translate(-25.52 -87.77)"/>
                <path class="cls-36" d="M268.58,358.38v2.39a1.32,1.32,0,0,1-.41-.14v-2.4a1.42,1.42,0,0,0,.41.15Z" transform="translate(-25.52 -87.77)"/>
              </g>
            </g>
            <polygon class="cls-49" points="252.77 271.1 252.76 273.49 243.58 273.11 243.59 270.72 252.77 271.1"/>
            <g class="cls-1">
              <g class="cls-1">
                <path class="cls-36" d="M279.85,358.07v2.39a.78.78,0,0,1-.43.55v-2.4a.71.71,0,0,0,.42-.54Z" transform="translate(-25.52 -87.77)"/>
                <path class="cls-42" d="M279.43,358.61V361l-.07,0a2.28,2.28,0,0,1-1.07.21v-2.4a2.24,2.24,0,0,0,1.06-.21l.08,0Z" transform="translate(-25.52 -87.77)"/>
              </g>
            </g>
            <polygon class="cls-44" points="197.62 272.39 197.61 274.79 193.02 272.14 193.03 269.75 197.62 272.39"/>
            <polygon class="cls-47" points="195.55 273.6 195.54 275.99 184.28 269.49 184.29 267.1 195.55 273.6"/>
            <polygon class="cls-44" points="193.79 274.62 193.78 277.02 182.52 270.52 182.53 268.12 193.79 274.62"/>
            <polygon class="cls-47" points="185.05 271.97 185.04 274.37 180.45 271.72 180.46 269.32 185.05 271.97"/>
            <g class="cls-1">
              <g class="cls-1">
                <path class="cls-34" d="M275.8,360.23v2.4a1.46,1.46,0,0,0-.48-.19v-2.39a1.83,1.83,0,0,1,.48.18Z" transform="translate(-25.52 -87.77)"/>
                <path class="cls-35" d="M275.32,360.05v2.39a2.35,2.35,0,0,0-1.6.19v-2.4a2.29,2.29,0,0,1,1.6-.18Z" transform="translate(-25.52 -87.77)"/>
                <path class="cls-34" d="M273.72,360.23v2.4h0a.73.73,0,0,0-.43.6v-2.4a.72.72,0,0,1,.42-.59Z" transform="translate(-25.52 -87.77)"/>
              </g>
            </g>
            <g class="cls-1">
              <g class="cls-1">
                <path class="cls-34" d="M273.72,360.23v2.4h0a.73.73,0,0,0-.43.6v-2.4a.72.72,0,0,1,.42-.59Z" transform="translate(-25.52 -87.77)"/>
              </g>
            </g>
            <g class="cls-1">
              <g class="cls-1">
                <path class="cls-34" d="M223.57,360.77v2.39a.73.73,0,0,0-.44-.6v-2.4a.75.75,0,0,1,.44.61Z" transform="translate(-25.52 -87.77)"/>
              </g>
            </g>
            <g class="cls-1">
              <g class="cls-1">
                <path class="cls-36" d="M273.72,361.44v2.39a.73.73,0,0,1-.43-.6v-2.4a.74.74,0,0,0,.43.61Z" transform="translate(-25.52 -87.77)"/>
              </g>
            </g>
            <g class="cls-1">
              <g class="cls-1">
                <path class="cls-36" d="M223.57,360.77v2.39a.73.73,0,0,1-.43.6h0v-2.4h0a.73.73,0,0,0,.43-.59Z" transform="translate(-25.52 -87.77)"/>
                <path class="cls-42" d="M223.14,361.36v2.4a2.27,2.27,0,0,1-1.59.18v-2.39a2.32,2.32,0,0,0,1.59-.19Z" transform="translate(-25.52 -87.77)"/>
                <path class="cls-36" d="M221.55,361.55v2.39a1.71,1.71,0,0,1-.48-.18v-2.4a1.92,1.92,0,0,0,.49.19Z" transform="translate(-25.52 -87.77)"/>
              </g>
            </g>
            <g class="cls-1">
              <g class="cls-1">
                <path class="cls-34" d="M242.52,362.65v2.4a1.52,1.52,0,0,0-.49-.19v-2.4a2.38,2.38,0,0,1,.49.19Z" transform="translate(-25.52 -87.77)"/>
                <path class="cls-35" d="M242,362.46v2.4a2.29,2.29,0,0,0-1.58.18v-2.39a2.29,2.29,0,0,1,1.58-.19Z" transform="translate(-25.52 -87.77)"/>
                <polygon class="cls-34" points="214.93 274.88 214.92 277.28 214.92 277.28 214.93 274.89 214.93 274.88 214.93 274.88"/>
              </g>
            </g>
            <g class="cls-1">
              <g class="cls-1">
                <path class="cls-34" d="M219.74,363v2.4a.75.75,0,0,0-.44-.61v-2.39a.73.73,0,0,1,.44.6Z" transform="translate(-25.52 -87.77)"/>
              </g>
            </g>
            <polygon class="cls-44" points="156.81 275.18 156.8 277.57 145.31 270.94 145.32 268.55 156.81 275.18"/>
            <g class="cls-1">
              <g class="cls-1">
                <path class="cls-34" d="M183.29,363.5v2.4a.81.81,0,0,0-.35-.37,1.5,1.5,0,0,0-.42-.15V363a1.67,1.67,0,0,1,.41.16.75.75,0,0,1,.35.36Z" transform="translate(-25.52 -87.77)"/>
                <path class="cls-35" d="M182.53,363v2.4l-.2,0v-2.4l.2,0Z" transform="translate(-25.52 -87.77)"/>
              </g>
            </g>
            <polygon class="cls-47" points="191.72 275.82 191.71 278.22 187.12 275.57 187.13 273.18 191.72 275.82"/>
            <g class="cls-1">
              <g class="cls-1">
                <path class="cls-34" d="M183.29,363.5v2.4a.81.81,0,0,0-.35-.37,1.5,1.5,0,0,0-.42-.15V363a1.67,1.67,0,0,1,.41.16.75.75,0,0,1,.35.36Z" transform="translate(-25.52 -87.77)"/>
              </g>
            </g>
            <g class="cls-1">
              <g class="cls-1">
                <path class="cls-36" d="M219.74,363v2.4a.71.71,0,0,1-.43.59h0v-2.4h0a.75.75,0,0,0,.43-.6Z" transform="translate(-25.52 -87.77)"/>
                <path class="cls-42" d="M219.3,363.59V366a2.38,2.38,0,0,1-1.59.18v-2.4a2.23,2.23,0,0,0,1.58-.18Z" transform="translate(-25.52 -87.77)"/>
                <path class="cls-36" d="M217.72,363.77v2.4a1.46,1.46,0,0,1-.48-.19v-2.39a1.78,1.78,0,0,0,.49.18Z" transform="translate(-25.52 -87.77)"/>
              </g>
            </g>
            <polygon class="cls-47" points="154.18 276.06 154.17 278.45 142.2 271.54 142.21 269.15 154.18 276.06"/>
            <polygon class="cls-44" points="219.38 276.26 219.38 278.66 217 277.28 217 274.89 219.38 276.26"/>
            <polygon class="cls-37" points="235.98 266.62 235.98 269.01 219.38 278.66 219.38 276.26 235.98 266.62"/>
            <polygon class="cls-44" points="257.39 276.57 257.39 278.97 250.28 274.86 250.28 272.46 257.39 276.57"/>
            <g class="cls-1">
              <g class="cls-1">
                <path class="cls-34" d="M283.34,364.94v2.39a.73.73,0,0,0-.43-.6v-2.39a.71.71,0,0,1,.43.6Z" transform="translate(-25.52 -87.77)"/>
              </g>
            </g>
            <polygon class="cls-47" points="254.27 277.18 254.27 279.57 248.2 276.07 248.21 273.67 254.27 277.18"/>
            <polygon class="cls-39" points="238.06 267.82 238.06 270.21 221.46 279.86 221.47 277.46 238.06 267.82"/>
            <g class="cls-1">
              <g class="cls-1">
                <path class="cls-36" d="M283.34,364.94v2.39a.74.74,0,0,1-.43.61v-2.4a.73.73,0,0,0,.43-.6Z" transform="translate(-25.52 -87.77)"/>
              </g>
            </g>
            <polygon class="cls-44" points="223.86 278.85 223.85 281.24 221.46 279.86 221.47 277.46 223.86 278.85"/>
            <g class="cls-1">
              <g class="cls-1">
                <path class="cls-34" d="M249.81,367.22v2.39a.71.71,0,0,0-.43-.6v-2.4a.76.76,0,0,1,.43.61Z" transform="translate(-25.52 -87.77)"/>
              </g>
            </g>
            <polygon class="cls-47" points="220.75 279.45 220.74 281.84 215.97 279.08 215.97 276.69 220.75 279.45"/>
            <g class="cls-1">
              <g class="cls-1">
                <path class="cls-36" d="M249.81,367.22v2.39a.73.73,0,0,1-.42.6v-2.4a.73.73,0,0,0,.43-.59Z" transform="translate(-25.52 -87.77)"/>
              </g>
            </g>
            <polygon class="cls-37" points="185.05 271.97 185.04 274.37 168.2 284.15 168.21 281.76 185.05 271.97"/>
            <polygon class="cls-44" points="168.21 281.76 168.2 284.15 157.77 278.13 157.78 275.74 168.21 281.76"/>
            <polygon class="cls-37" points="154.18 276.06 154.17 278.45 143.67 284.56 143.68 282.16 154.18 276.06"/>
            <polygon class="cls-39" points="156.27 277.26 156.26 279.66 146.8 285.16 146.8 282.77 156.27 277.26"/>
            <g class="cls-1">
              <g class="cls-1">
                <path class="cls-34" d="M169.19,369.93v2.39a.71.71,0,0,0-.43.6v-2.4a.72.72,0,0,1,.42-.59Z" transform="translate(-25.52 -87.77)"/>
              </g>
            </g>
            <g class="cls-1">
              <g class="cls-1">
                <path class="cls-36" d="M169.26,371.17v2.39a.82.82,0,0,1-.49-.66v-2.39a.8.8,0,0,0,.48.66Z" transform="translate(-25.52 -87.77)"/>
              </g>
            </g>
            <polygon class="cls-39" points="187.13 273.18 187.12 275.57 169.25 285.96 169.26 283.56 187.13 273.18"/>
            <polygon class="cls-47" points="167.18 283.56 167.17 285.96 156.26 279.66 156.27 277.26 167.18 283.56"/>
            <g class="cls-1">
              <g class="cls-1">
                <polygon class="cls-36" points="169.26 283.56 169.25 285.96 169.25 285.96 169.25 283.56 169.25 283.56 169.26 283.56"/>
                <path class="cls-42" d="M194.77,371.33v2.39a2.24,2.24,0,0,1-1.58.19v-2.39a2.32,2.32,0,0,0,1.59-.19Z" transform="translate(-25.52 -87.77)"/>
                <path class="cls-36" d="M193.18,371.52v2.39a1.52,1.52,0,0,1-.49-.19v-2.39a2.29,2.29,0,0,0,.48.19Z" transform="translate(-25.52 -87.77)"/>
              </g>
            </g>
            <polygon class="cls-37" points="214.93 274.89 214.92 277.28 196.15 288.19 196.16 285.79 214.93 274.89"/>
            <polygon class="cls-39" points="215.97 276.69 215.97 279.08 199.27 288.79 199.28 286.39 215.97 276.69"/>
            <g class="cls-1">
              <g class="cls-1">
                <path class="cls-34" d="M221.67,373.56V376a.73.73,0,0,0-.43.6v-2.39a.72.72,0,0,1,.42-.6Z" transform="translate(-25.52 -87.77)"/>
              </g>
            </g>
            <g class="cls-1">
              <g class="cls-1">
                <path class="cls-36" d="M221.68,374.76v2.4a.74.74,0,0,1-.43-.61v-2.39a.74.74,0,0,0,.43.6Z" transform="translate(-25.52 -87.77)"/>
              </g>
            </g>
            <polygon class="cls-47" points="198.55 288.37 198.54 290.77 196.16 289.39 196.16 287 198.55 288.37"/>
            <polygon class="cls-37" points="220.75 279.45 220.74 281.84 204.04 291.55 204.05 289.15 220.75 279.45"/>
            <polygon class="cls-44" points="204.05 289.15 204.04 291.55 199.27 288.79 199.28 286.39 204.05 289.15"/>
            <g class="cls-1">
              <g class="cls-1">
                <path class="cls-34" d="M256.9,377.06v2.4a1.61,1.61,0,0,0-.49-.19v-2.4a2.62,2.62,0,0,1,.49.19Z" transform="translate(-25.52 -87.77)"/>
                <path class="cls-35" d="M256.41,376.87v2.4a2.29,2.29,0,0,0-1.58.19v-2.4a2.32,2.32,0,0,1,1.59-.19Z" transform="translate(-25.52 -87.77)"/>
                <polygon class="cls-34" points="229.31 289.3 229.3 291.69 229.3 291.69 229.3 289.3 229.31 289.3 229.31 289.3"/>
              </g>
            </g>
            <polygon class="cls-37" points="254.27 277.18 254.27 279.57 232.4 292.28 232.4 289.89 254.27 277.18"/>
            <polygon class="cls-44" points="232.4 289.89 232.4 292.28 231.37 291.69 231.38 289.3 232.4 289.89"/>
            <polygon class="cls-39" points="223.87 280.05 223.86 282.44 205.09 293.35 205.1 290.95 223.87 280.05"/>
            <polygon class="cls-47" points="203.02 290.95 203.01 293.35 200.62 291.97 200.63 289.57 203.02 290.95"/>
            <polygon class="cls-39" points="257.39 277.78 257.38 280.17 234.48 293.49 234.48 291.09 257.39 277.78"/>
            <g class="cls-1">
              <g class="cls-1">
                <polygon class="cls-36" points="205.1 290.95 205.09 293.35 205.09 293.35 205.09 290.96 205.1 290.95 205.1 290.95"/>
                <path class="cls-42" d="M230.61,378.72v2.4a2.37,2.37,0,0,1-1.59.18v-2.39a2.32,2.32,0,0,0,1.59-.19Z" transform="translate(-25.52 -87.77)"/>
                <path class="cls-36" d="M229,378.91v2.39a1.83,1.83,0,0,1-.48-.18v-2.4a2.09,2.09,0,0,0,.48.19Z" transform="translate(-25.52 -87.77)"/>
              </g>
            </g>
            <polygon class="cls-44" points="235.28 291.55 235.28 293.95 234.48 293.49 234.48 291.09 235.28 291.55"/>
            <polygon class="cls-47" points="232.17 292.15 232.16 294.55 230.34 293.5 230.35 291.1 232.17 292.15"/>
            <g class="cls-1">
              <g class="cls-1">
                <path class="cls-34" d="M261.22,379.93v2.4a.71.71,0,0,0-.42-.62v-2.39a.71.71,0,0,1,.42.61Z" transform="translate(-25.52 -87.77)"/>
              </g>
            </g>
            <g class="cls-1">
              <g class="cls-1">
                <path class="cls-36" d="M261.22,379.93V380s0-.05,0-.07Z" transform="translate(-25.52 -87.77)"/>
              </g>
            </g>
            <polygon class="cls-37" points="229.3 289.3 229.3 291.69 221.08 296.47 221.08 294.07 229.3 289.3"/>
            <polygon class="cls-50" points="249.3 294.35 249.3 296.74 235.69 294.63 235.7 292.23 249.3 294.35"/>
            <g class="cls-1">
              <g class="cls-1">
                <path class="cls-34" d="M275.91,382.94v2.39a.44.44,0,0,0,0-.22.88.88,0,0,0-.38-.39,1.71,1.71,0,0,0-.48-.18v-2.4a2.09,2.09,0,0,1,.48.19.87.87,0,0,1,.38.38.64.64,0,0,1,.05.23Z" transform="translate(-25.52 -87.77)"/>
                <path class="cls-35" d="M275,382.14v2.4l-.18,0v-2.4l.18,0Z" transform="translate(-25.52 -87.77)"/>
              </g>
            </g>
            <polygon class="cls-39" points="230.35 291.1 230.34 293.5 224.19 297.07 224.2 294.68 230.35 291.1"/>
            <g class="cls-1">
              <g class="cls-1">
                <path class="cls-34" d="M246.6,381.84v2.39a.75.75,0,0,0-.42.6v-2.39a.73.73,0,0,1,.43-.6Z" transform="translate(-25.52 -87.77)"/>
              </g>
            </g>
            <g class="cls-1">
              <g class="cls-1">
                <path class="cls-34" d="M275.91,382.94v2.39a.44.44,0,0,0,0-.22.88.88,0,0,0-.38-.39,1.71,1.71,0,0,0-.48-.18v-2.4a2.09,2.09,0,0,1,.48.19.87.87,0,0,1,.38.38.64.64,0,0,1,.05.23Z" transform="translate(-25.52 -87.77)"/>
              </g>
            </g>
            <g class="cls-1">
              <g class="cls-1">
                <path class="cls-36" d="M246.61,383v2.4a.72.72,0,0,1-.43-.61v-2.39a.75.75,0,0,0,.44.6Z" transform="translate(-25.52 -87.77)"/>
              </g>
            </g>
            <polygon class="cls-51" points="246.09 295.61 246.08 298 233.88 296.11 233.88 293.71 246.09 295.61"/>
            <g class="cls-1">
              <g class="cls-1">
                <path class="cls-36" d="M275.91,382.94v2.39a.72.72,0,0,1-.42.6v-2.4a.71.71,0,0,0,.42-.59Z" transform="translate(-25.52 -87.77)"/>
              </g>
            </g>
            <polygon class="cls-44" points="226.02 295.73 226.01 298.12 224.19 297.07 224.2 294.68 226.02 295.73"/>
            <polygon class="cls-37" points="232.17 292.15 232.16 294.55 226.01 298.12 226.02 295.73 232.17 292.15"/>
            <polygon class="cls-47" points="222.11 295.87 222.11 298.26 221.08 297.67 221.09 295.28 222.11 295.87"/>
            <polygon class="cls-39" points="233.88 293.71 233.88 296.11 228.71 299.11 228.72 296.71 233.88 293.71"/>
            <polygon class="cls-37" points="198.55 288.37 198.54 290.77 177.59 302.94 177.6 300.55 198.55 288.37"/>
            <path class="cls-52" d="M221.67,373.56a.63.63,0,0,0,0,1.2l2.38,1.38-20.95,12.17-30.79-17.78,9.47-5.5,10.91,6.3a2.29,2.29,0,0,0,2.07,0l17.88-10.39,4.58,2.65a2.31,2.31,0,0,0,2.08,0c.58-.34.56-.87,0-1.2l-11.25-6.5a2.28,2.28,0,0,0-2.08,0,.63.63,0,0,0,0,1.2l4.58,2.65-16.84,9.78-10.43-6a.75.75,0,0,0-.35-.36,1.9,1.9,0,0,0-.61-.2l-11.49-6.63,5.11-3,1.13-.67-.78-.38-.32-.17c-2.15-1.24-2.16-3.25,0-4.49a8.55,8.55,0,0,1,7.74,0l.31.2.81.37,2.05-1.19-.79-.39a2.55,2.55,0,0,1-.33-.17c-2.09-1.21-2.14-3.25,0-4.49a8.56,8.56,0,0,1,7.76,0l.3.19.81.36,2-1.19-.78-.38-.31-.17c-2.15-1.24-2.16-3.25,0-4.49a8.58,8.58,0,0,1,7.77,0l.27.17.68.45,1.43-.83,5.14-3,22.89,13.22-17.25,10-4.58-2.65a2.31,2.31,0,0,0-2.08,0,.63.63,0,0,0,0,1.2l11.25,6.5a2.31,2.31,0,0,0,2.08,0c.58-.33.56-.87,0-1.2l-4.59-2.65,18.29-10.62c.57-.33.57-.87,0-1.21l-10.91-6.29,4.79-2.79,30.8,17.78L244.9,364l-2.38-1.38a2.31,2.31,0,0,0-2.08,0Z" transform="translate(-25.52 -87.77)"/>
            <polygon class="cls-44" points="177.6 300.55 177.59 302.94 146.8 285.16 146.8 282.77 177.6 300.55"/>
            <polygon class="cls-39" points="200.63 289.57 200.62 291.97 179.67 304.14 179.68 301.75 200.63 289.57"/>
            <polygon class="cls-52" points="228.72 296.71 233.88 293.71 246.09 295.61 232.03 303.77 228.72 296.71"/>
            <polygon class="cls-37" points="246.09 295.61 246.08 298 232.03 306.17 232.03 303.77 246.09 295.61"/>
            <polygon class="cls-53" points="232.03 303.77 232.03 306.17 228.71 299.11 228.72 296.71 232.03 303.77"/>
            <polygon class="cls-37" points="222.11 295.87 222.11 298.26 195.88 313.5 195.89 311.11 222.11 295.87"/>
            <polygon class="cls-44" points="195.89 311.11 195.88 313.5 179.67 304.14 179.68 301.75 195.89 311.11"/>
            <polygon class="cls-47" points="193.82 312.31 193.81 314.7 143.74 285.8 143.75 283.4 193.82 312.31"/>
            <g class="cls-1">
              <g class="cls-1">
                <path class="cls-34" d="M211.4,401.67v2.39a2.17,2.17,0,0,0-.49-.19v-2.39a1.61,1.61,0,0,1,.49.19Z" transform="translate(-25.52 -87.77)"/>
                <path class="cls-35" d="M210.91,401.48v2.39a2.3,2.3,0,0,0-1.58.19v-2.4a2.29,2.29,0,0,1,1.58-.18Z" transform="translate(-25.52 -87.77)"/>
                <path class="cls-34" d="M209.33,401.66v2.4h0a.73.73,0,0,0-.43.6v-2.4a.72.72,0,0,1,.42-.59Z" transform="translate(-25.52 -87.77)"/>
              </g>
            </g>
            <g class="cls-1">
              <g class="cls-1">
                <path class="cls-34" d="M209.33,401.66v2.4h0a.73.73,0,0,0-.43.6v-2.4a.72.72,0,0,1,.42-.59Z" transform="translate(-25.52 -87.77)"/>
              </g>
            </g>
            <g class="cls-1">
              <g class="cls-1">
                <path class="cls-36" d="M209.33,402.87v2.39a.71.71,0,0,1-.43-.6v-2.4a.74.74,0,0,0,.43.61Z" transform="translate(-25.52 -87.77)"/>
              </g>
            </g>
            <polygon class="cls-37" points="193.82 312.31 193.81 314.7 188.48 317.8 188.49 315.41 193.82 312.31"/>
            <polygon class="cls-44" points="188.49 315.41 188.48 317.8 185.88 316.3 185.88 313.9 188.49 315.41"/>
            <polygon class="cls-39" points="224.2 297.07 224.19 299.46 190.57 319 190.57 316.61 224.2 297.07"/>
            <polygon class="cls-44" points="193.18 318.12 193.17 320.51 190.57 319 190.57 316.61 193.18 318.12"/>
            <g class="cls-1">
              <g class="cls-1">
                <path class="cls-34" d="M219.13,406.49v2.39a.74.74,0,0,0-.43-.61v-2.39a.76.76,0,0,1,.43.61Z" transform="translate(-25.52 -87.77)"/>
              </g>
            </g>
            <g class="cls-1">
              <g class="cls-1">
                <path class="cls-36" d="M219.13,406.49v2.39a.73.73,0,0,1-.42.6h0v-2.4h0a.71.71,0,0,0,.43-.59Z" transform="translate(-25.52 -87.77)"/>
                <path class="cls-42" d="M218.7,407.08v2.4a2.27,2.27,0,0,1-1.59.18v-2.39a2.32,2.32,0,0,0,1.59-.19Z" transform="translate(-25.52 -87.77)"/>
                <path class="cls-36" d="M217.11,407.27v2.39a1.83,1.83,0,0,1-.48-.18v-2.4a1.72,1.72,0,0,0,.48.19Z" transform="translate(-25.52 -87.77)"/>
              </g>
            </g>
            <path class="cls-54" d="M275.86,382.71a.64.64,0,0,1-.37.82l-17.65,10.26a2.29,2.29,0,0,1-1.42.22,2.2,2.2,0,0,1-.67-.22,1,1,0,0,1-.37-.38l-3.69-7.88a2.2,2.2,0,0,1-1.18-.24l-.8-.46-33.62,19.54,2.61,1.51a.63.63,0,0,1,0,1.2,2.29,2.29,0,0,1-2.07,0l-7.3-4.21a.63.63,0,0,1,0-1.2,2.28,2.28,0,0,1,2.08,0l2.61,1.5,5.33-3.1-50.08-28.9c-.63-.37-.64-.91-.07-1.24l10.5-6.11-12-6.91a.63.63,0,0,1,0-1.2l5.26-3.06c-2.29-1.9-2-4.52.92-6.21a12.71,12.71,0,0,1,7.53-1.32c-.54-1.57.28-3.22,2.26-4.36a12.76,12.76,0,0,1,7.53-1.33c-.55-1.57.28-3.21,2.25-4.36a13.3,13.3,0,0,1,10.72-.55l5.58-3.25a2.31,2.31,0,0,1,2.08,0l12,6.91,11.25-6.54,0-9.49c0-.47.65-.85,1.46-.85a2.18,2.18,0,0,1,1,.25.75.75,0,0,1,.44.6l0,7.79,8.95-5.2a2.31,2.31,0,0,1,2.08,0,.63.63,0,0,1,0,1.2l-8.95,5.21h13.45a2.07,2.07,0,0,1,1,.26.74.74,0,0,1,.44.59c0,.47-.65.85-1.46.85H237.16l-4.38,2.54,37.08,21.41,8.63.37a2,2,0,0,1,.92.24c.3.17.48.41.44.66s-.2.43-.5.58a2.24,2.24,0,0,1-1.06.21l-9.19-.38a2.56,2.56,0,0,1-.93-.25l-4.59-2.65L247,365.23l2.4,1.38a.63.63,0,0,1,0,1.2l-18.77,10.91a2.29,2.29,0,0,1-2.07,0l-2.39-1.38-21,12.17,16.2,9.36,26.23-15.24-1-.59a.63.63,0,0,1,0-1.2l8.22-4.78a2.29,2.29,0,0,1,2.07,0l1,.59,21.87-12.71-6.07-3.5a.64.64,0,0,1,0-1.2,2.3,2.3,0,0,1,2.09,0l7.11,4.11a.63.63,0,0,1,0,1.2L260,378.86l.8.46a.67.67,0,0,1,.41.68l13.61,2.11a1.9,1.9,0,0,1,.66.22A.87.87,0,0,1,275.86,382.71Zm-72.75,5.6,20.95-12.17-2.38-1.38a.63.63,0,0,1,0-1.2l18.77-10.91a2.31,2.31,0,0,1,2.08,0L244.9,364l16.6-9.65L230.7,336.6l-4.79,2.79,10.91,6.29c.58.34.58.88,0,1.21l-18.29,10.62,4.59,2.65c.57.33.59.87,0,1.2a2.31,2.31,0,0,1-2.08,0l-11.25-6.5a.63.63,0,0,1,0-1.2,2.31,2.31,0,0,1,2.08,0l4.58,2.65,17.25-10-22.89-13.22-5.13,3-1.44.83-.68-.45-.27-.17a8.58,8.58,0,0,0-7.77,0c-2.14,1.24-2.13,3.25,0,4.49l.31.17.78.38-2,1.19-.76-.33-.35-.22a8.56,8.56,0,0,0-7.76,0c-2.13,1.24-2.08,3.28,0,4.49a2.55,2.55,0,0,0,.33.17l.79.39-2.05,1.19-.76-.33-.36-.24a8.55,8.55,0,0,0-7.74,0c-2.14,1.24-2.13,3.25,0,4.49l.32.17.78.38-1.11.66-5.13,3,11.49,6.63a1.9,1.9,0,0,1,.61.2.75.75,0,0,1,.35.36l10.43,6,16.84-9.78L206,357.09a.63.63,0,0,1,0-1.2,2.28,2.28,0,0,1,2.08,0l11.25,6.5c.57.33.59.86,0,1.2a2.31,2.31,0,0,1-2.08,0l-4.58-2.65-17.88,10.39a2.29,2.29,0,0,1-2.07,0L181.79,365l-9.47,5.5,30.79,17.78Zm54.44,3.23,14.05-8.17-12.2-1.89-5.17,3,3.32,7.06Zm-11.29-24.33-4.77-2.76-16.7,9.71,4.78,2.76,16.69-9.71Zm5.28,16.28,6.15-3.57-1.82-1.05-6.15,3.57,1.82,1.05Z" transform="translate(-25.52 -87.77)"/>
            <polygon class="cls-52" points="224.2 294.68 230.35 291.1 232.17 292.15 226.02 295.73 224.2 294.68"/>
            <polygon class="cls-47" points="224.99 297.53 224.99 299.93 224.19 299.46 224.2 297.07 224.99 297.53"/>
            <g class="cls-1">
              <g class="cls-1">
                <path class="cls-42" d="M251.69,385.53v2.4a2.88,2.88,0,0,1-.72-.06v-2.4a2.84,2.84,0,0,0,.72.06Z" transform="translate(-25.52 -87.77)"/>
                <path class="cls-36" d="M251,385.47v2.4a1.83,1.83,0,0,1-.46-.18v-2.4a1.7,1.7,0,0,0,.46.18Z" transform="translate(-25.52 -87.77)"/>
              </g>
            </g>
            <polygon class="cls-55" points="229.86 305.64 229.86 308.04 226.17 300.16 226.17 297.77 229.86 305.64"/>
            <polygon class="cls-39" points="249.97 295.77 249.97 298.16 232.32 308.42 232.32 306.03 249.97 295.77"/>
            <g class="cls-1">
              <g class="cls-1">
                <polygon class="cls-36" points="232.32 306.03 232.32 308.42 232.31 308.42 232.32 306.03 232.32 306.03 232.32 306.03"/>
                <path class="cls-42" d="M257.84,393.79v2.4a2.29,2.29,0,0,1-1.42.21l-.18,0V394l.18,0a2.31,2.31,0,0,0,1.42-.22Z" transform="translate(-25.52 -87.77)"/>
                <path class="cls-36" d="M256.24,394v2.4a1.72,1.72,0,0,1-.48-.19.87.87,0,0,1-.38-.38v-2.39a1,1,0,0,0,.37.38,1.9,1.9,0,0,0,.49.18Z" transform="translate(-25.52 -87.77)"/>
              </g>
            </g>
            <polygon class="cls-47" points="191.11 319.32 191.1 321.71 183.81 317.5 183.81 315.1 191.11 319.32"/>
            <path class="cls-52" d="M228,308.79l-94.86,55.13,95.48,55.13,94.86-55.13Zm55.25,56.39a.76.76,0,0,1-.11.16,1.37,1.37,0,0,1-.26.2L268.42,374l-8.42,4.9.8.46a1.11,1.11,0,0,1,.28.23,1.06,1.06,0,0,1,.1.17.67.67,0,0,1,0,.28l13.61,2.11a1.9,1.9,0,0,1,.66.22l.12.08a.81.81,0,0,1,.26.3.59.59,0,0,1-.24.74.57.57,0,0,1-.13.08l-17.65,10.26-.15.08a2.28,2.28,0,0,1-.89.17,2.43,2.43,0,0,1-.38,0,2.2,2.2,0,0,1-.67-.22,1.25,1.25,0,0,1-.27-.23.65.65,0,0,1-.1-.15l-3.69-7.88a2.43,2.43,0,0,1-.47,0,1.64,1.64,0,0,1-.45-.1l-.13-.05-.13-.07-.8-.46-33.62,19.54,2.61,1.51a.63.63,0,0,1,0,1.2,1.83,1.83,0,0,1-.75.23l-.28,0a2.05,2.05,0,0,1-1-.25l-7.3-4.21-.19-.13a.87.87,0,0,1-.13-.15.35.35,0,0,1,0-.08.52.52,0,0,1-.06-.16v-.16a.74.74,0,0,1,.32-.46l.1-.06a1.61,1.61,0,0,1,.49-.19,2.51,2.51,0,0,1,.55-.06,2.08,2.08,0,0,1,1,.25l2.61,1.5,5.33-3.1-50.08-28.9h0l-.06,0c-.54-.31-.57-.81-.11-1.14l.1-.06,10.5-6.11-12-6.91a.63.63,0,0,1,0-1.2l5.26-3.06a3.63,3.63,0,0,1-1.51-3,3.1,3.1,0,0,1,.47-1.43,3.77,3.77,0,0,1,.43-.58,4.17,4.17,0,0,1,.56-.55c.15-.12.3-.24.46-.35l.51-.33a9.52,9.52,0,0,1,1.2-.57,13.5,13.5,0,0,1,6.33-.75,3,3,0,0,1,.34-2.62,5,5,0,0,1,.93-1.05l.3-.24a5.86,5.86,0,0,1,.69-.45,8.75,8.75,0,0,1,1.19-.58,13.66,13.66,0,0,1,6.34-.75c-.55-1.57.28-3.21,2.25-4.36a13.3,13.3,0,0,1,10.72-.55l5.58-3.25h0a2.3,2.3,0,0,1,1.84-.11l.23.11,12,6.91,11.25-6.54,0-9.49a.59.59,0,0,1,.24-.47,1.89,1.89,0,0,1,1.22-.38,2.18,2.18,0,0,1,1,.25.75.75,0,0,1,.44.6l0,7.79,8.95-5.2a1.52,1.52,0,0,1,.49-.19,2.44,2.44,0,0,1,.55-.06h.28a1.89,1.89,0,0,1,.76.24c.32.19.47.44.43.68a1.09,1.09,0,0,1-.05.17.9.9,0,0,1-.37.35l-8.95,5.21h13.45a2.45,2.45,0,0,1,.56.07,1.84,1.84,0,0,1,.47.19.9.9,0,0,1,.31.26.24.24,0,0,1,.06.09.2.2,0,0,1,0,.08.45.45,0,0,1,0,.16c0,.47-.65.85-1.46.85H237.16l-4.38,2.54,37.08,21.41,8.63.37.26,0a2.05,2.05,0,0,1,.66.22.85.85,0,0,1,.43.48.37.37,0,0,1,0,.18.43.43,0,0,1-.08.24,1.14,1.14,0,0,1-.22.22.67.67,0,0,1-.2.12,1.77,1.77,0,0,1-.49.17,2.69,2.69,0,0,1-.57,0l-9.19-.38-.37-.07h-.09a1.77,1.77,0,0,1-.39-.14l-.08,0-4.59-2.65L247,365.23l2.39,1.38.11.06.16.15a.65.65,0,0,1,.1.15.52.52,0,0,1,.06.16s0,.05,0,.08a.41.41,0,0,1,0,.16l0,.08a.57.57,0,0,1-.11.16,1.11,1.11,0,0,1-.26.2l-18.77,10.91a2.09,2.09,0,0,1-.48.19,2.6,2.6,0,0,1-1.11,0,2.29,2.29,0,0,1-.48-.19l-2.39-1.38-21,12.17,16.2,9.36,26.23-15.24-1-.59a1,1,0,0,1-.27-.21l-.11-.15a.53.53,0,0,1-.06-.24.41.41,0,0,1,0-.16.75.75,0,0,1,.14-.24,1.11,1.11,0,0,1,.26-.2l8.22-4.78a2.27,2.27,0,0,1,1.31-.23,2,2,0,0,1,.76.23l1,.59,21.87-12.71-6.07-3.5a1,1,0,0,1-.37-.36.49.49,0,0,1-.05-.16.65.65,0,0,1,.41-.68,1.61,1.61,0,0,1,.49-.19,2.1,2.1,0,0,1,.56-.07,2.42,2.42,0,0,1,.81.14l.23.11,7.11,4.11a.73.73,0,0,1,.43.6.25.25,0,0,1,0,.08.49.49,0,0,1-.05.16Z" transform="translate(-25.52 -87.77)"/>
            <polygon class="cls-52" points="215.97 276.69 199.28 286.39 204.05 289.15 220.75 279.45 215.97 276.69"/>
            <polygon class="cls-37" points="298 276.15 297.99 278.55 203.13 333.68 203.14 331.28 298 276.15"/>
            <polygon class="cls-44" points="203.14 331.28 203.13 333.68 107.65 278.55 107.66 276.15 203.14 331.28"/>
          </g>
        </g>
        <g>
          <path id="sombra" class="cls-11" d="M111.44,353.45h-8.68L86.6,344.21s-11.2-34.47,5.84-62.58c-2.67-1.84-3.94-2.73-3.94-2.73s-18.23,5.17-43.21-10.3c-15-1.75-32.33-24.87-6.56-43.62S88,218.81,88,218.81s26.06-2.33,20.88,15.44c6.63,6.45,13.92,15.25,12.45,26.6,1.91,1.19,3.18,1.9,3.18,1.9s48.42-24.28,101.3-17.58-64.22,72.16-64.22,72.16l-40.12,26.8-10,9.32Z" transform="translate(-25.52 -87.77)"/>
          <g>
            <g>
              <path class="cls-56" d="M166.43,247.57c4.71-2.87,17.52-16,19-17.55l.14-.14,17.19,10,0-14.66,19.07,11.08.15,53.36-19.07-11.08-.1-35.7c-4,4.06-13.38,13.41-17.27,15.78l-.19.11-19.07-11.08Z" transform="translate(-25.52 -87.77)"/>
              <g class="cls-1">
                <g class="cls-1">
                  <path class="cls-56" d="M165.1,264.06,146,253c-2,1.62-6.55,5.27-6.79,5.46l19.07,11.08c.24-.19,4.79-3.84,6.79-5.46Z" transform="translate(-25.52 -87.77)"/>
                </g>
              </g>
              <g>
                <path class="cls-56" d="M191.67,227.89,210.74,239c-2,.63-4.09,1.3-6.1,2l-19.07-11.08C187.58,229.19,189.63,228.52,191.67,227.89Z" transform="translate(-25.52 -87.77)"/>
                <path class="cls-56" d="M194.18,227.14l.53-.15a54.78,54.78,0,0,1,8.64-1.87,20.91,20.91,0,0,1,4.46,0,26.38,26.38,0,0,1,4.62,1.27,55.2,55.2,0,0,1,5.3,2.58L236.8,240a55.2,55.2,0,0,0-5.3-2.58,25.73,25.73,0,0,0-4.62-1.26,20.23,20.23,0,0,0-4.46,0,54.78,54.78,0,0,0-8.64,1.87l-.53.15-.25.08-19.07-11.08Z" transform="translate(-25.52 -87.77)"/>
              </g>
              <path class="cls-57" d="M213.78,238.07l0,0-.55.18Z" transform="translate(-25.52 -87.77)"/>
              <path class="cls-58" d="M213,238.3a63.55,63.55,0,0,1,8.79-2l.15,53.36,37.13-21.44c-1-2.3-1.93-4.34-2.84-6.06-6.29-11.85-13.29-18.31-18.91-21.83a49.37,49.37,0,0,0-5.82-2.89,25.73,25.73,0,0,0-4.62-1.26,20.23,20.23,0,0,0-4.46,0,54.78,54.78,0,0,0-8.64,1.87l-.53.15Z" transform="translate(-25.52 -87.77)"/>
              <path class="cls-59" d="M191.67,227.89l1.16-.35a68.26,68.26,0,0,1,9.89-2.33l19.07,11.08a68.26,68.26,0,0,0-9.89,2.33l-1.16.35c-.51.17-1,.35-1.55.51L190.12,228.4C190.64,228.24,191.16,228.06,191.67,227.89Z" transform="translate(-25.52 -87.77)"/>
              <polygon class="cls-60" points="178.98 153.34 159.91 142.26 155.54 143.69 174.62 154.78 178.98 153.34"/>
              <polygon class="cls-61" points="183.77 187.22 164.7 176.14 116.51 203.97 135.58 215.05 183.77 187.22"/>
              <g class="cls-1">
                <g class="cls-1">
                  <path class="cls-56" d="M185.31,258.76l-19.07-11.08c-5.24,3-18.83,5.6-19.54,5.74l19.07,11.08c.71-.14,14.3-2.71,19.54-5.74Z" transform="translate(-25.52 -87.77)"/>
                </g>
              </g>
              <polygon class="cls-62" points="145.02 171.77 125.95 160.69 120.52 165.22 139.59 176.3 145.02 171.77"/>
              <polygon class="cls-63" points="139.59 176.3 120.52 165.22 121.19 165.65 140.25 176.73 139.59 176.3"/>
              <polygon class="cls-64" points="135.48 179.61 116.41 168.53 116.51 203.97 135.58 215.05 135.48 179.61"/>
              <path class="cls-58" d="M209.29,275l-.1-35.51c.52-.16,1-.34,1.55-.51-2,.63-4.09,1.3-6.1,2l-.14.14c-1.48,1.52-14.29,14.68-19,17.55l-.19.11c-5.24,3-18.83,5.6-19.54,5.74l-.67-.44c-2,1.62-6.55,5.27-6.79,5.46l2.68-2.14.1,35.44Z" transform="translate(-25.52 -87.77)"/>
              <polygon class="cls-65" points="174.58 142.32 155.51 131.24 125.91 148.33 144.98 159.41 174.58 142.32"/>
              <polygon class="cls-66" points="144.98 159.41 125.91 148.33 125.95 160.69 145.02 171.77 144.98 159.41"/>
              <path class="cls-57" d="M170.53,259.54l-5.43,4.52.67.44c.71-.14,14.3-2.71,19.54-5.74l.19-.11c4.71-2.87,17.52-16,19-17.55l-4.37,1.44,0-12.45-29.6,17.09Z" transform="translate(-25.52 -87.77)"/>
              <polygon class="cls-67" points="122.28 191.53 103.21 180.44 103.35 233.53 122.42 244.61 122.28 191.53"/>
              <path class="cls-59" d="M139.24,258.44l2.68-2.14L161,267.38l-2.68,2.14c-.37.33-7.4,6.51-10.52,9.77l-19.07-11.08C131.84,265,138.87,258.77,139.24,258.44Z" transform="translate(-25.52 -87.77)"/>
              <path class="cls-68" d="M209.19,239.48l.1,35.51-48.2,27.83-.1-35.44-2.68,2.14c-.37.33-7.4,6.51-10.52,9.77l.14,53.09,74-42.73-.15-53.36a68.26,68.26,0,0,0-9.89,2.33l-1.16.35C210.23,239.14,209.71,239.32,209.19,239.48Z" transform="translate(-25.52 -87.77)"/>
              <g class="cls-1">
                <g class="cls-1">
                  <g class="cls-1">
                    <path class="cls-56" d="M114.24,344.13,95.17,333.05c-.91,2.76-1.85,5.9-2.8,9.32l19.07,11.08c1-3.42,1.89-6.56,2.8-9.32Z" transform="translate(-25.52 -87.77)"/>
                  </g>
                </g>
                <path class="cls-56" d="M113.89,289.49c1.83-3.26,4.87-8.13,5.79-9.62.15-.23,3.09-4.67,4.61-6.57,1.31-1.66,2.78-3.38,4.42-5.08l19.07,11.08c-1.64,1.71-3.11,3.43-4.42,5.09-1.52,1.89-4.46,6.33-4.61,6.57-.92,1.48-4,6.35-5.79,9.61a245.56,245.56,0,0,0-18.72,43.56L95.17,333.05A245.23,245.23,0,0,1,113.89,289.49Z" transform="translate(-25.52 -87.77)"/>
                <path class="cls-58" d="M114.24,344.13c-.91,2.76-1.85,5.9-2.8,9.32l36.49-21.07-.15-53.08c-1.64,1.71-3.11,3.43-4.42,5.09-1.52,1.89-4.46,6.33-4.61,6.57-.92,1.48-4,6.35-5.79,9.61A245.56,245.56,0,0,0,114.24,344.13Z" transform="translate(-25.52 -87.77)"/>
              </g>
            </g>
            <path class="cls-69" d="M125.35,195a50.8,50.8,0,0,1,.32-5.56c.12-.93.21-1.64.3-2.26,0,0,0-.08,0-.12a.68.68,0,0,0,0-.15l0-.21a37.87,37.87,0,0,1,1.11-5.29c.1-.35.22-.75.33-1.15.06-.21.1-.38.16-.61a41.17,41.17,0,0,1,2.06-5.76l.41-.88.31-.73a36,36,0,0,1,1.72-3.39c.35-.65.71-1.28,1.06-1.83.77-1.2,1.34-2.08,1.86-2.83l.18-.27a50.65,50.65,0,0,1,4-4.93c.31-.35.67-.73,1.05-1.12l.19-.19.59-.58c.36-.36.72-.7,1.09-1l.19-.17.1-.09,1.08-.95.12-.11.46-.39.29-.23.47-.39.82-.63.34-.26.16-.12c1.51-1.12,2.71-1.89,3.94-2.65h0l1.33-.74c.48-.27,1-.55,1.42-.78a30.75,30.75,0,0,1,2.79-1.33l.28-.11c.86-.36,1.65-.68,2.3-.91l.14-.05c.94-.34,1.73-.6,2.53-.83l.14,0,1.69-.45a37.17,37.17,0,0,1,4.06-.81l.28,0a39.68,39.68,0,0,1,4.77-.43l.66,0h1l1.58,0c.76,0,1.7.08,2.64.17h0c.93.09,1.83.21,2.61.33l.19,0,.6.09c.74.13,1.39.27,2,.4l.2,0,.24.07c.79.18,1.49.36,2.11.53l.24.07,1.83.56a39.64,39.64,0,0,1,4,1.57h0l.35.16a37.42,37.42,0,0,1,3.44,1.74l.58.34c.67.39,1.36.8,2.07,1.25l.29.2c.75.48,1.37.91,2,1.4l.89.68,1.75,1.39c.06.05.12.11.18.15h0a44.53,44.53,0,0,1,4.62,4.48q.75.86,1.44,1.68l.67.83.74.94.25.34a46.72,46.72,0,0,1,4.19,6.63l.52,1a46.71,46.71,0,0,1,2.41,5.53v0a56,56,0,0,1,2.19,7.55.29.29,0,0,1,0,.09,56.32,56.32,0,0,1,1.22,11.81c0,1.94-.08,3.29-.22,4.68s-.26,2.56-.44,3.72l0,.25a42.5,42.5,0,0,1-.86,4.31c-.28,1.22-.66,2.52-1.07,3.79-.47,1.48-1,2.91-1.52,4.2-.16.38-.3.74-.43,1a48,48,0,0,1-3.13,6c-.14.24-.29.51-.43.74-.29.48-.63,1-1,1.52l-.2.32a34.7,34.7,0,0,1-2.09,2.85l-.07.09a28.36,28.36,0,0,1-1.93,2.3h0l-.37.41-.17.18a45.87,45.87,0,0,1-3.87,3.76l-.47.42c-.26.23-1,.86-2.1,1.69l-.63.47-1,.72,0,0c-.7.48-1.47,1-2.31,1.5l-.36.23a42.15,42.15,0,0,1-3.73,2L193,243l-.3.14-.85.39-.61.26-.55.24-1.09.43-.19.07-.63.24-.47.15-1.65.54c-.49.15-1,.29-1.41.41l-1,.27-.49.11-.19,0c-.94.22-2.07.45-3.38.64l-.28,0a40.63,40.63,0,0,1-6.47.46h-.62c-.63,0-1.28,0-2-.07l-1.08-.07c-.6,0-1.22-.12-1.85-.2-.38-.05-.75-.08-1.14-.14-.89-.13-1.8-.3-2.72-.5l-.36-.06h-.07a45.67,45.67,0,0,1-14-5.71c-.4-.25-.83-.53-1.26-.83-1.37-.9-2.59-1.79-3.69-2.66l-.19-.15c-.4-.3-.85-.69-1.29-1.08s-.7-.62-1-.92l-.13-.12c-.16-.14-.33-.31-.5-.47-.78-.74-1.46-1.43-2-2s-.94-1.06-1.44-1.64l-.68-.77a35.31,35.31,0,0,1-3.48-4.75c-.15-.23-.32-.52-.49-.79-.51-.81-1-1.63-1.44-2.43h0v0c-.23-.43-.47-.86-.67-1.26-.71-1.44-1.61-3.28-2.23-4.91a53.65,53.65,0,0,1-2-6.18l-.09-.3a35.82,35.82,0,0,1-.86-4l-.09-.55c-.07-.43-.15-.83-.21-1.27,0-.17,0-.33-.06-.51-.09-.61-.17-1.21-.22-1.74,0-.1,0-.22,0-.32-.2-2-.26-3.77-.27-5.36,0-.12,0-.24,0-.35Z" transform="translate(-25.52 -87.77)"/>
            <g id="sombrero">
              <path class="cls-68" d="M117,162.33c0-.33,0-.66,0-1,0-.76.11-1.77.18-2.52a12.93,12.93,0,0,1,.32-1.78c.1-.48.24-1,.39-1.5.06-.2.11-.39.17-.57a16.8,16.8,0,0,1,1.18-2.9l0-.05a16.82,16.82,0,0,1,1.65-2.81,25.24,25.24,0,0,1,2.06-2.64,1.85,1.85,0,0,1,.14-.14c.46-.51.94-1,1.36-1.42a2.33,2.33,0,0,1,.28-.26l.21-.21c.51-.46,1.14-1,1.76-1.51a31.49,31.49,0,0,1,3.08-2.21,33.11,33.11,0,0,1,3.47-2c1.54-.81,3.62-1.65,5.37-2.35l.83-.33h0a67.4,67.4,0,0,1,8.12-2.3c1-.25,2.3-.48,3.39-.65l1-.15c2.65-.34,4-.51,5.2-.62h.18c.55,0,1.06-.08,1.67-.11l1.43-.08H161l.6,0h.24l.66,0h.18l.69,0h5.58l.8.05,1.65.11c1.82.12,3,.22,4.22.35h0l.39,0c.79.09,1.63.21,2.72.36h.08c.93.14,3.41.49,6.76,1.2l.27.05,2.08.47h0a97.67,97.67,0,0,1,17.35,5.75l.05,0,.08,0c1.21.53,2.4,1.09,3.55,1.66,1.43.69,2.34,1.17,3.86,2q2.76,1.54,5.28,3.24l0,0q2.49,1.68,4.73,3.49l1,.78.09.07c.69.59,1.41,1.23,2.18,1.94l.28.27.47.45a38.55,38.55,0,0,1,3.27,3.47c.64.75,1.2,1.46,1.69,2.11l.06.08a31.75,31.75,0,0,1,2.48,3.75,22.83,22.83,0,0,1,1.31,2.48,22.13,22.13,0,0,1,1.25,3.14,13.59,13.59,0,0,1,.77,2.73,17.82,17.82,0,0,1,.45,3c.05.47.08.92.09,1.33v.59c0,.15,0,.3,0,.45a18.89,18.89,0,0,1-.42,4c-.07.32-.16.68-.26,1.05v.07c-.09.32-.18.64-.28,1,0,0,0,.05,0,.07-.09.31-.19.61-.28.87a7.88,7.88,0,0,1-.31.78c-.22.55-.46,1.09-.72,1.63a14.65,14.65,0,0,1-1.28,2.25,22.06,22.06,0,0,1-1.6,2.21c-.2.25-.4.49-.6.71-.54.62-1.13,1.23-1.75,1.83l-.43.41a31.86,31.86,0,0,1-2.77,2.3h0a38.61,38.61,0,0,1-5.47,3.38l-.09.05-.17.09-.37.18-.29.15a56.78,56.78,0,0,1-5.33,2.24l0,0c-.59.22-1.28.45-2,.69-2.52.81-4.53,1.28-5.52,1.49-1.72.39-3.45.72-5,.92l-3.73.47-.16,0-1.21.12c-1,.1-1.94.15-3.44.22h-.32l-.61,0h-.49c-4.36.14-7.76-.08-7.79-.08l-.62,0c-1.76-.09-3.06-.21-3.62-.26-1.55-.14-2.79-.29-4.89-.59-.79-.11-2.69-.38-5.26-.88-1.31-.25-2-.4-3.3-.71l-.53-.12c-1.4-.33-2.79-.69-4.17-1.07l-.3-.08s-1.66-.45-4.12-1.26q-2.7-.88-5.3-1.91l-1.24-.49-.46-.19-1.75-.75-.13-.05h0c-1.08-.48-3.35-1.49-6.2-3l-.31-.17-.84-.46a69.65,69.65,0,0,1-11.59-8c-1.18-1-2.05-1.81-2.5-2.27l-.11-.12-.3-.28c-.38-.38-.75-.76-1.1-1.13s-1-1-1.38-1.5l-.07-.09c-.73-.84-1.37-1.63-1.92-2.36l-.14-.18-.11-.16c-.3-.4-.57-.78-.82-1.13-.44-.64-.88-1.3-1.21-1.88a35.88,35.88,0,0,1-2.33-4.65v0a21.8,21.8,0,0,1-1.37-4.46c0-.26-.09-.53-.14-.82s-.12-.74-.2-1.17A12.54,12.54,0,0,1,117,163c0-.17,0-.34,0-.5Z" transform="translate(-25.52 -87.77)"/>
              <path class="cls-70" d="M213.45,167.61c-21.86,13.16-58,13.53-80.83.82-6.68-3.72-11.46-8.16-14.34-12.9a52.67,52.67,0,0,1,5.52-15.11,53.43,53.43,0,0,1,4.16-6.33c.63-.85,2.29-2.88,3.32-3.94a53.42,53.42,0,0,1,5.12-4.73,54.7,54.7,0,0,1,6-4.17,57.77,57.77,0,0,1,29.2-8.12,60.94,60.94,0,0,1,13.88,1.48,56.45,56.45,0,0,1,8.54,2.67,51.38,51.38,0,0,1,6.45,3.07,55.43,55.43,0,0,1,6.09,4,51.45,51.45,0,0,1,18.73,27.6c.35,1.32.64,2.56.88,3.77C223.53,160,219.31,164.09,213.45,167.61Z" transform="translate(-25.52 -87.77)"/>
              <path class="cls-71" d="M155.26,138.89c9.82,5.47,25.4,5.31,34.82-.35s9.09-14.7-.72-20.17-25.4-5.32-34.82.35S145.45,133.42,155.26,138.89Z" transform="translate(-25.52 -87.77)"/>
            </g>
          </g>
        </g>
        <g>
          <g>
            <path class="cls-11" d="M382.92,333.72l-1.88-5-48.58-28.31-.75.31c.39-1.86-.63-3.79-3.08-5.22a16.93,16.93,0,0,0-11-1.55l-18.17-9.36c1.86-2.33,1.16-5.18-2.15-7.11-4.24-2.46-11.15-2.46-15.42,0-4,2.32-4.28,6-.78,8.47h0c.23.16.47.32.73.47s.56.31.86.45l30.45,17.57a16.52,16.52,0,0,0,9.57,1.75l49.56,27.51Z" transform="translate(-25.52 -87.77)"/>
            <path class="cls-11" d="M356.8,351.26l-1.88-5-15.68-9.81c.18-1.73-.85-3.5-3.14-4.83a17,17,0,0,0-11.62-1.43l-9.2-4.75c1.87-2.33,1.17-5.19-2.14-7.11a17,17,0,0,0-15.43,0c-4,2.31-4.27,6-.78,8.46h0c.23.16.47.32.73.47s.54.3.82.43l22.15,12.86a16.53,16.53,0,0,0,9.57,1.76l16,8.93Z" transform="translate(-25.52 -87.77)"/>
          </g>
          <g>
            <g>
              <path class="cls-72" d="M284.67,272.27a3,3,0,0,1,1.32,2.34c0,.86-.59,1.21-1.34.74a2.81,2.81,0,0,1-1.32-2.31C283.33,272.18,283.89,271.87,284.67,272.27Z" transform="translate(-25.52 -87.77)"/>
              <path class="cls-72" d="M287,269.47l4,2.36-.07,6.28-2.14-1.25v-3.81l-4-2.34a1.85,1.85,0,0,0-1.9-.16l2.16-1.27A2,2,0,0,1,287,269.47Z" transform="translate(-25.52 -87.77)"/>
              <path class="cls-8" d="M282.05,272.27v.07a6,6,0,0,0,2.68,4.66l4,2.38,0-6.33-4-2.34C283.3,269.89,282.05,270.56,282.05,272.27Zm1.28.77c0-.86.56-1.17,1.34-.77a3,3,0,0,1,1.32,2.34c0,.86-.59,1.21-1.34.74A2.81,2.81,0,0,1,283.33,273Z" transform="translate(-25.52 -87.77)"/>
              <polygon class="cls-73" points="257.33 182.79 257.33 182.79 257.33 182.79 257.33 182.79"/>
              <path class="cls-9" d="M287.78,274a8.08,8.08,0,0,1,11.12-2.94l28.56,16.66L319.18,302,290.62,285.3a8.07,8.07,0,0,1-2.91-11.13Z" transform="translate(-25.52 -87.77)"/>
              <path class="cls-74" d="M323.34,288.14c3.23-1.87,5.84-.35,5.78,3.33a12.72,12.72,0,0,1-5.84,10.09c-3.26,1.83-5.85.32-5.79-3.37A12.6,12.6,0,0,1,323.34,288.14Z" transform="translate(-25.52 -87.77)"/>
              <path class="cls-9" d="M324.8,289a4.05,4.05,0,0,1,4.15-.37l3.65,2.1L324.31,305l-3.65-2.12a4.18,4.18,0,0,1-1.71-3.77A12.84,12.84,0,0,1,324.8,289Z" transform="translate(-25.52 -87.77)"/>
              <path class="cls-74" d="M328.49,291.12c3.23-1.86,5.83-.33,5.8,3.36a12.82,12.82,0,0,1-5.84,10.09c-3.2,1.84-5.84.32-5.84-3.38A12.86,12.86,0,0,1,328.49,291.12Z" transform="translate(-25.52 -87.77)"/>
              <polygon class="cls-52" points="354.24 237.72 359.01 238.26 363.64 243.36 363.64 245.49 362.15 246.37 362.15 244.24 357.45 239.12 352.74 238.58 302.39 209.24 303.94 208.37 354.24 237.72"/>
              <polygon class="cls-75" points="357.45 239.12 362.15 244.24 362.15 246.37 357.4 245.96 352.74 241.05 302.39 211.71 302.39 209.24 352.74 238.58 357.45 239.12"/>
              <path class="cls-76" d="M293.15,277.21a1.43,1.43,0,0,1,2-.54l.66.37a1.43,1.43,0,0,0-2,.56h-.07a1.5,1.5,0,0,0,.58,2l-.64-.35a1.44,1.44,0,0,1-.54-2Z" transform="translate(-25.52 -87.77)"/>
              <path class="cls-27" d="M293.82,277.6a1.43,1.43,0,0,1,2-.56l18.94,11a1.48,1.48,0,0,1,.53,2,1.51,1.51,0,0,1-2,.55l-18.93-11a1.5,1.5,0,0,1-.58-2Z" transform="translate(-25.52 -87.77)"/>
              <path class="cls-76" d="M292.89,282.87v.24a2.92,2.92,0,0,0,1.22,2.22l19.61,11.42c.37.22.66.24.88.08-.08.68-.59.93-1.23.59l-19.62-11.49a2.73,2.73,0,0,1-1.31-2.18l0-.05A1,1,0,0,1,292.89,282.87Z" transform="translate(-25.52 -87.77)"/>
              <path class="cls-27" d="M313.37,294.4a2.79,2.79,0,0,1,1.29,2.2v.06s0,.15-.06.17c-.22.16-.51.14-.88-.08l-19.61-11.42a2.92,2.92,0,0,1-1.22-2.22v-.24a.89.89,0,0,1,.86.12Z" transform="translate(-25.52 -87.77)"/>
              <path class="cls-76" d="M298.46,273.48a2.72,2.72,0,0,1,2.54,0l19.61,11.41c.67.37.7,1,.15,1.34a.83.83,0,0,0-.51-.71l-19.56-11.45a3,3,0,0,0-2.6,0h0c-.07.05-.11.06-.15.16a.74.74,0,0,1,.52-.75Z" transform="translate(-25.52 -87.77)"/>
              <path class="cls-27" d="M298.09,274.11a3,3,0,0,1,2.6,0l19.56,11.45a.83.83,0,0,1,.51.71.28.28,0,0,1-.15.15h0a2.85,2.85,0,0,1-2.56-.05L298.46,275c-.37-.24-.52-.47-.52-.69s.08-.11.15-.16Z" transform="translate(-25.52 -87.77)"/>
            </g>
            <g>
              <path class="cls-72" d="M300.69,313.44a2.82,2.82,0,0,1,1.21,2.16c0,.83-.61,1.14-1.27.72a2.71,2.71,0,0,1-1.29-2.18C299.34,313.34,300,313,300.69,313.44Z" transform="translate(-25.52 -87.77)"/>
              <path class="cls-72" d="M302.79,310.77l3.8,2.22,0,5.95-2.08-1.2v-3.56l-3.76-2.24a1.87,1.87,0,0,0-1.82-.17l2.06-1.21A1.84,1.84,0,0,1,302.79,310.77Z" transform="translate(-25.52 -87.77)"/>
              <path class="cls-8" d="M298.17,313.44v.05a5.61,5.61,0,0,0,2.54,4.4l3.77,2.25v-6l-3.76-2.24C299.32,311.12,298.17,311.78,298.17,313.44Zm1.17.7c0-.8.62-1.15,1.35-.7a2.82,2.82,0,0,1,1.21,2.16c0,.83-.61,1.14-1.27.72A2.71,2.71,0,0,1,299.34,314.14Z" transform="translate(-25.52 -87.77)"/>
              <polygon class="cls-73" points="273.34 224 273.34 224.01 273.34 224.01 273.34 224"/>
              <path class="cls-9" d="M303.57,315.06a7.69,7.69,0,0,1,10.56-2.75l21.22,12.34-7.84,13.47-21.28-12.36a7.8,7.8,0,0,1-2.78-10.58Z" transform="translate(-25.52 -87.77)"/>
              <path class="cls-74" d="M331.42,325c3.09-1.69,5.54-.29,5.54,3.2a12.12,12.12,0,0,1-5.54,9.54c-3,1.74-5.53.32-5.53-3.21A12.23,12.23,0,0,1,331.42,325Z" transform="translate(-25.52 -87.77)"/>
              <path class="cls-9" d="M332.87,325.83a3.89,3.89,0,0,1,3.91-.35l3.45,2L332.39,341l-3.53-2c-1-.56-1.54-1.81-1.54-3.53A12.2,12.2,0,0,1,332.87,325.83Z" transform="translate(-25.52 -87.77)"/>
              <path class="cls-74" d="M336.32,327.88c3.07-1.74,5.52-.33,5.5,3.22a12.14,12.14,0,0,1-5.52,9.49c-3.06,1.74-5.53.31-5.53-3.21A12.1,12.1,0,0,1,336.32,327.88Z" transform="translate(-25.52 -87.77)"/>
              <path class="cls-76" d="M310.59,317.54l.59.38a1.42,1.42,0,0,0-1.44,2.45l-.62-.38a1.42,1.42,0,0,1-.46-1.92A1.47,1.47,0,0,1,310.59,317.54Z" transform="translate(-25.52 -87.77)"/>
              <path class="cls-27" d="M311.18,317.92,323.34,325a1.38,1.38,0,0,1,.47,1.92h0a1.39,1.39,0,0,1-1.89.5l-12.18-7.06a1.42,1.42,0,0,1,1.44-2.45Z" transform="translate(-25.52 -87.77)"/>
              <path class="cls-76" d="M308.4,323.63h0a2.57,2.57,0,0,0,1.19,2.12l12.78,7.44a.73.73,0,0,0,.87.07.73.73,0,0,1-1.21.51l-12.77-7.44a2.66,2.66,0,0,1-1.24-2.06v0a.84.84,0,0,1,.38-.8Z" transform="translate(-25.52 -87.77)"/>
              <path class="cls-27" d="M322,331a2.71,2.71,0,0,1,1.23,2.1v0c0,.06,0,.14,0,.17a.73.73,0,0,1-.87-.07l-12.78-7.44a2.57,2.57,0,0,1-1.19-2.12h0v-.19c.22-.12.48-.07.86.1Z" transform="translate(-25.52 -87.77)"/>
              <path class="cls-76" d="M313.72,314.54a2.86,2.86,0,0,1,2.36,0l12.78,7.5a.71.71,0,0,1,.16,1.28.94.94,0,0,0-.47-.73l-12.82-7.42a2.56,2.56,0,0,0-2.36,0h0a.72.72,0,0,0-.22.1c0-.23.22-.49.56-.73Z" transform="translate(-25.52 -87.77)"/>
              <path class="cls-27" d="M313.37,315.16a2.56,2.56,0,0,1,2.36,0l12.82,7.42a.94.94,0,0,1,.47.73c-.07,0-.09.08-.18.1h0a2.91,2.91,0,0,1-2.43,0L313.69,316a1,1,0,0,1-.56-.69.72.72,0,0,1,.22-.1Z" transform="translate(-25.52 -87.77)"/>
              <polygon class="cls-52" points="326.87 253.26 332.81 253.52 338.7 259.26 338.65 263.82 337.22 264.67 337.27 260.08 331.32 254.35 325.4 254.08 310.37 245.35 311.83 244.5 326.87 253.26"/>
              <polygon class="cls-75" points="331.32 254.35 337.27 260.08 337.22 264.67 331.28 263.5 325.4 256.84 310.37 248.09 310.37 245.35 325.4 254.08 331.32 254.35"/>
            </g>
          </g>
        </g>
      </g>
    </g>
  </g>
</svg>
